<svg xmlns="http://www.w3.org/2000/svg" xmlns:xlink="http://www.w3.org/1999/xlink" version="1.2" width="210.00mm" height="297.00mm" viewBox="0 0 119.5016 169.0094">
<style type="text/css">
<![CDATA[
tspan { white-space: pre; }
]]>
</style>
<!-- Page: 1/1 -->
<g transform="translate(14.2264, 10.5853)">
<line stroke-linejoin="round" stroke-linecap="round" stroke-width="0.1000" stroke="currentColor" x1="0.0500" y1="0" x2="28.1684" y2="0"/>
</g>
<g transform="translate(14.2264, 9.5853)">
<line stroke-linejoin="round" stroke-linecap="round" stroke-width="0.1000" stroke="currentColor" x1="0.0500" y1="0" x2="28.1684" y2="0"/>
</g>
<g transform="translate(14.2264, 8.5853)">
<line stroke-linejoin="round" stroke-linecap="round" stroke-width="0.1000" stroke="currentColor" x1="0.0500" y1="0" x2="28.1684" y2="0"/>
</g>
<g transform="translate(14.2264, 7.5853)">
<line stroke-linejoin="round" stroke-linecap="round" stroke-width="0.1000" stroke="currentColor" x1="0.0500" y1="0" x2="28.1684" y2="0"/>
</g>
<g transform="translate(14.2264, 6.5853)">
<line stroke-linejoin="round" stroke-linecap="round" stroke-width="0.1000" stroke="currentColor" x1="0.0500" y1="0" x2="28.1684" y2="0"/>
</g>
<g transform="translate(36.1714, 8.5853)">
<rect x="-0.0650" y="-3.1786" width="0.1300" height="2.4925" ry="0.0400" fill="currentColor"/>
</g>
<a style="color:inherit;" xlink:href="textedit:///mnt/waifuh1t/repo/Restia/static/lilypond/simple-rhythm/shorthand-2.ly:10:39:40">
<g transform="translate(34.9322, 8.0853)">
<path transform="scale(0.0040, -0.0040)" d="M218 136c55 0 108 -28 108 -89c0 -71 -55 -121 -102 -149c-35 -21 -75 -34 -116 -34c-55 0 -108 28 -108 89c0 71 55 121 102 149c35 21 75 34 116 34z" fill="currentColor"/>
</g>
</a>
<g transform="translate(33.4172, 8.5853)">
<rect x="-0.0650" y="-3.0041" width="0.1300" height="3.3180" ry="0.0400" fill="currentColor"/>
</g>
<a style="color:inherit;" xlink:href="textedit:///mnt/waifuh1t/repo/Restia/static/lilypond/simple-rhythm/shorthand-2.ly:10:32:33">
<g transform="translate(32.1780, 9.0853)">
<path transform="scale(0.0040, -0.0040)" d="M218 136c55 0 108 -28 108 -89c0 -71 -55 -121 -102 -149c-35 -21 -75 -34 -116 -34c-55 0 -108 28 -108 89c0 71 55 121 102 149c35 21 75 34 116 34z" fill="currentColor"/>
</g>
</a>
<g transform="translate(31.1630, 8.5853)">
<rect x="-0.0650" y="-4.5000" width="0.1300" height="3.8139" ry="0.0400" fill="currentColor"/>
</g>
<a style="color:inherit;" xlink:href="textedit:///mnt/waifuh1t/repo/Restia/static/lilypond/simple-rhythm/shorthand-2.ly:10:27:28">
<g transform="translate(29.9238, 8.0853)">
<path transform="scale(0.0040, -0.0040)" d="M218 136c55 0 108 -28 108 -89c0 -71 -55 -121 -102 -149c-35 -21 -75 -34 -116 -34c-55 0 -108 28 -108 89c0 71 55 121 102 149c35 21 75 34 116 34z" fill="currentColor"/>
</g>
</a>
<g transform="translate(23.3353, 4.0853)">
<polygon stroke-linejoin="round" stroke-linecap="round" stroke-width="0.0800" fill="currentColor" stroke="currentColor" points="7.8526 -0.2000 7.8526 0.2000 0.0400 0.2000 0.0400 -0.2000"/>
</g>
<g transform="translate(23.3353, 4.8953)">
<polygon stroke-linejoin="round" stroke-linecap="round" stroke-width="0.0800" fill="currentColor" stroke="currentColor" points="7.8526 -0.2000 7.8526 0.2000 0.0400 0.2000 0.0400 -0.2000"/>
</g>
<a style="color:inherit;" xlink:href="textedit:///mnt/waifuh1t/repo/Restia/static/lilypond/simple-rhythm/shorthand-2.ly:10:44:45">
<g transform="translate(37.4364, 7.5853)">
<path transform="scale(0.0040, -0.0040)" d="M218 136c55 0 108 -28 108 -89c0 -71 -55 -121 -102 -149c-35 -21 -75 -34 -116 -34c-55 0 -108 28 -108 89c0 71 55 121 102 149c35 21 75 34 116 34z" fill="currentColor"/>
</g>
</a>
<g transform="translate(38.6756, 8.5853)">
<rect x="-0.0650" y="-3.3372" width="0.1300" height="2.1511" ry="0.0400" fill="currentColor"/>
</g>
<a style="color:inherit;" xlink:href="textedit:///mnt/waifuh1t/repo/Restia/static/lilypond/simple-rhythm/shorthand-2.ly:10:52:53">
<g transform="translate(39.9406, 8.0853)">
<path transform="scale(0.0040, -0.0040)" d="M218 136c55 0 108 -28 108 -89c0 -71 -55 -121 -102 -149c-35 -21 -75 -34 -116 -34c-55 0 -108 28 -108 89c0 71 55 121 102 149c35 21 75 34 116 34z" fill="currentColor"/>
</g>
</a>
<g transform="translate(41.1798, 8.5853)">
<rect x="-0.0650" y="-3.4959" width="0.1300" height="2.8098" ry="0.0400" fill="currentColor"/>
</g>
<g transform="translate(33.3522, 5.5853)">
<polygon stroke-linejoin="round" stroke-linecap="round" stroke-width="0.0800" fill="currentColor" stroke="currentColor" points="7.8526 -0.7000 7.8526 -0.3000 0.0400 0.2000 0.0400 -0.2000"/>
</g>
<g transform="translate(33.3522, 6.3953)">
<polygon stroke-linejoin="round" stroke-linecap="round" stroke-width="0.0800" fill="currentColor" stroke="currentColor" points="7.8526 -0.7000 7.8526 -0.3000 0.0400 0.2000 0.0400 -0.2000"/>
</g>
<g transform="translate(23.4003, 8.5853)">
<rect x="-0.0650" y="-4.5000" width="0.1300" height="3.8139" ry="0.0400" fill="currentColor"/>
</g>
<a style="color:inherit;" xlink:href="textedit:///mnt/waifuh1t/repo/Restia/static/lilypond/simple-rhythm/shorthand-2.ly:6:4:5">
<g transform="translate(18.5564, 8.5853)">
<path transform="scale(0.0040, -0.0040)" d="M196 117h117c0 -48 27 -94 72 -94c8 0 12 -5 12 -11s-4 -12 -12 -12c-44 0 -87 13 -131 13s-87 -13 -131 -13c-8 0 -12 6 -12 12s4 11 12 11c45 0 73 46 73 94zM204 307c22 14 44 29 60 50c11 15 19 33 27 50c2 4 5 6 9 6c6 0 13 -5 13 -14v-245h72c10 0 15 -7 15 -14
s-5 -15 -15 -15h-72v-8h-117v8h-167c-23 0 -31 14 -31 23c0 3 1 5 2 6c80 93 138 207 138 330c0 10 7 19 16 16c23 -7 47 -13 71 -13s48 6 71 13c14 4 23 -9 17 -16l-284 -330h167v131c0 8 1 17 8 22z" fill="currentColor"/>
</g>
<g transform="translate(18.5564, 10.6013)">
<path transform="scale(0.0040, -0.0040)" d="M196 117h117c0 -48 27 -94 72 -94c8 0 12 -5 12 -11s-4 -12 -12 -12c-44 0 -87 13 -131 13s-87 -13 -131 -13c-8 0 -12 6 -12 12s4 11 12 11c45 0 73 46 73 94zM204 307c22 14 44 29 60 50c11 15 19 33 27 50c2 4 5 6 9 6c6 0 13 -5 13 -14v-245h72c10 0 15 -7 15 -14
s-5 -15 -15 -15h-72v-8h-117v8h-167c-23 0 -31 14 -31 23c0 3 1 5 2 6c80 93 138 207 138 330c0 10 7 19 16 16c23 -7 47 -13 71 -13s48 6 71 13c14 4 23 -9 17 -16l-284 -330h167v131c0 8 1 17 8 22z" fill="currentColor"/>
</g>
</a>
<g transform="translate(14.3564, 8.5853)">
<path transform="scale(0.0040, -0.0040)" d="M490 -250h-92c-6 0 -10 4 -10 10v480c0 6 4 10 10 10h92c6 0 10 -4 10 -10v-480c0 -6 -4 -10 -10 -10zM270 -250h-93c-6 0 -10 4 -10 10v480c0 6 4 10 10 10h93c6 0 10 -4 10 -10v-480c0 -6 -4 -10 -10 -10z" fill="currentColor"/>
</g>
<a style="color:inherit;" xlink:href="textedit:///mnt/waifuh1t/repo/Restia/static/lilypond/simple-rhythm/shorthand-2.ly:10:8:9">
<g transform="translate(22.1611, 8.0853)">
<path transform="scale(0.0040, -0.0040)" d="M218 136c55 0 108 -28 108 -89c0 -71 -55 -121 -102 -149c-35 -21 -75 -34 -116 -34c-55 0 -108 28 -108 89c0 71 55 121 102 149c35 21 75 34 116 34z" fill="currentColor"/>
</g>
</a>
<g transform="translate(28.4088, 8.5853)">
<rect x="-0.0650" y="-4.5000" width="0.1300" height="4.8139" ry="0.0400" fill="currentColor"/>
</g>
<a style="color:inherit;" xlink:href="textedit:///mnt/waifuh1t/repo/Restia/static/lilypond/simple-rhythm/shorthand-2.ly:10:20:21">
<g transform="translate(27.1695, 9.0853)">
<path transform="scale(0.0040, -0.0040)" d="M218 136c55 0 108 -28 108 -89c0 -71 -55 -121 -102 -149c-35 -21 -75 -34 -116 -34c-55 0 -108 28 -108 89c0 71 55 121 102 149c35 21 75 34 116 34z" fill="currentColor"/>
</g>
</a>
<g transform="translate(26.1545, 8.5853)">
<rect x="-0.0650" y="-4.5000" width="0.1300" height="2.3139" ry="0.0400" fill="currentColor"/>
</g>
<a style="color:inherit;" xlink:href="textedit:///mnt/waifuh1t/repo/Restia/static/lilypond/simple-rhythm/shorthand-2.ly:10:13:14">
<g transform="translate(24.9153, 6.5853)">
<path transform="scale(0.0040, -0.0040)" d="M218 136c55 0 108 -28 108 -89c0 -71 -55 -121 -102 -149c-35 -21 -75 -34 -116 -34c-55 0 -108 28 -108 89c0 71 55 121 102 149c35 21 75 34 116 34z" fill="currentColor"/>
</g>
</a>
<g transform="translate(30.5412, 164.9944)">
<a xlink:href="https://lilypond.org/">
<rect x="0.0000" y="-0.6006" width="58.4192" height="2.3761" fill="none" stroke="none" stroke-width="0.0"/>
</a>
</g>
<g transform="translate(30.5412, 164.9944)">
<text font-family="serif" font-size="2.2001" text-anchor="start" fill="currentColor">
<tspan>Music engraving by LilyPond 2.22.1—www.lilypond.org</tspan>
</text>
</g>
</svg>
