<svg xmlns="http://www.w3.org/2000/svg" xmlns:xlink="http://www.w3.org/1999/xlink" version="1.2" width="114.35mm" height="23.76mm" viewBox="8.5358 -0.0000 65.0698 13.5187">
<style type="text/css">
<![CDATA[
tspan { white-space: pre; }
]]>
</style>
<g transform="translate(8.5358, 11.3828)">
<line stroke-linejoin="round" stroke-linecap="round" stroke-width="0.1000" stroke="currentColor" x1="0.0500" y1="0" x2="65.0198" y2="0"/>
</g>
<g transform="translate(8.5358, 10.3828)">
<line stroke-linejoin="round" stroke-linecap="round" stroke-width="0.1000" stroke="currentColor" x1="0.0500" y1="0" x2="65.0198" y2="0"/>
</g>
<g transform="translate(8.5358, 9.3828)">
<line stroke-linejoin="round" stroke-linecap="round" stroke-width="0.1000" stroke="currentColor" x1="0.0500" y1="0" x2="65.0198" y2="0"/>
</g>
<g transform="translate(8.5358, 8.3828)">
<line stroke-linejoin="round" stroke-linecap="round" stroke-width="0.1000" stroke="currentColor" x1="0.0500" y1="0" x2="65.0198" y2="0"/>
</g>
<g transform="translate(8.5358, 7.3828)">
<line stroke-linejoin="round" stroke-linecap="round" stroke-width="0.1000" stroke="currentColor" x1="0.0500" y1="0" x2="65.0198" y2="0"/>
</g>
<g transform="translate(36.1813, 9.3828)">
<rect x="0.0000" y="-2.0000" width="0.1900" height="4.0000" ry="0.0000" fill="currentColor"/>
</g>
<g transform="translate(73.4157, 9.3828)">
<rect x="0.0000" y="-2.0000" width="0.1900" height="4.0000" ry="0.0000" fill="currentColor"/>
</g>
<a style="color:inherit;" xlink:href="textedit:///mnt/waifuh1t/repo/Restia/static/lilypond/lilypond-for-drums/text.ly:13:8:9">
<g transform="translate(54.6965, 8.8828)">
<path transform="scale(0.0040, -0.0040)" d="M218 136c55 0 108 -28 108 -89c0 -71 -55 -121 -102 -149c-35 -21 -75 -34 -116 -34c-55 0 -108 28 -108 89c0 71 55 121 102 149c35 21 75 34 116 34z" fill="currentColor"/>
</g>
</a>
<g transform="translate(55.9357, 9.3828)">
<rect x="-0.0650" y="-3.5000" width="0.1300" height="2.8139" ry="0.0400" fill="currentColor"/>
</g>
<a style="color:inherit;" xlink:href="textedit:///mnt/waifuh1t/repo/Restia/static/lilypond/lilypond-for-drums/text.ly:13:16:17">
<g transform="translate(57.2007, 13.4967)">
<text font-family="serif" font-size="2.2001" text-anchor="start" fill="currentColor">
<tspan>R</tspan>
</text>
</g>
</a>
<a style="color:inherit;" xlink:href="textedit:///mnt/waifuh1t/repo/Restia/static/lilypond/lilypond-for-drums/text.ly:13:15:16">
<g transform="translate(57.2007, 8.8828)">
<path transform="scale(0.0040, -0.0040)" d="M218 136c55 0 108 -28 108 -89c0 -71 -55 -121 -102 -149c-35 -21 -75 -34 -116 -34c-55 0 -108 28 -108 89c0 71 55 121 102 149c35 21 75 34 116 34z" fill="currentColor"/>
</g>
</a>
<g transform="translate(58.4400, 9.3828)">
<rect x="-0.0650" y="-3.5000" width="0.1300" height="2.8139" ry="0.0400" fill="currentColor"/>
</g>
<a style="color:inherit;" xlink:href="textedit:///mnt/waifuh1t/repo/Restia/static/lilypond/lilypond-for-drums/text.ly:13:23:24">
<g transform="translate(60.9050, 13.4967)">
<text font-family="serif" font-size="2.2001" text-anchor="start" fill="currentColor">
<tspan>R</tspan>
</text>
</g>
</a>
<a style="color:inherit;" xlink:href="textedit:///mnt/waifuh1t/repo/Restia/static/lilypond/lilypond-for-drums/text.ly:13:21:22">
<g transform="translate(60.9050, 8.8828)">
<path transform="scale(0.0040, -0.0040)" d="M218 136c55 0 108 -28 108 -89c0 -71 -55 -121 -102 -149c-35 -21 -75 -34 -116 -34c-55 0 -108 28 -108 89c0 71 55 121 102 149c35 21 75 34 116 34z" fill="currentColor"/>
</g>
</a>
<g transform="translate(62.1442, 9.3828)">
<rect x="-0.0650" y="-3.5000" width="0.1300" height="2.8139" ry="0.0400" fill="currentColor"/>
</g>
<g transform="translate(38.4455, 5.8828)">
<polygon stroke-linejoin="round" stroke-linecap="round" stroke-width="0.0800" fill="currentColor" stroke="currentColor" points="5.0984 -0.2000 5.0984 0.2000 0.0400 0.2000 0.0400 -0.2000"/>
</g>
<g transform="translate(38.4455, 6.6928)">
<polygon stroke-linejoin="round" stroke-linecap="round" stroke-width="0.0800" fill="currentColor" stroke="currentColor" points="2.5942 -0.2000 2.5942 0.2000 0.0400 0.2000 0.0400 -0.2000"/>
</g>
<a style="color:inherit;" xlink:href="textedit:///mnt/waifuh1t/repo/Restia/static/lilypond/lilypond-for-drums/text.ly:12:36:37">
<g transform="translate(49.6881, 5.1828)">
<text font-family="serif" font-size="2.2001" text-anchor="start" fill="currentColor">
<tspan>L</tspan>
</text>
</g>
</a>
<a style="color:inherit;" xlink:href="textedit:///mnt/waifuh1t/repo/Restia/static/lilypond/lilypond-for-drums/text.ly:12:34:35">
<g transform="translate(49.6881, 8.8828)">
<path transform="scale(0.0040, -0.0040)" d="M218 136c55 0 108 -28 108 -89c0 -71 -55 -121 -102 -149c-35 -21 -75 -34 -116 -34c-55 0 -108 28 -108 89c0 71 55 121 102 149c35 21 75 34 116 34z" fill="currentColor"/>
</g>
</a>
<g transform="translate(50.9273, 9.3828)">
<rect x="-0.0650" y="-3.5000" width="0.1300" height="2.8139" ry="0.0400" fill="currentColor"/>
</g>
<a style="color:inherit;" xlink:href="textedit:///mnt/waifuh1t/repo/Restia/static/lilypond/lilypond-for-drums/text.ly:13:10:11">
<g transform="translate(54.6965, 13.4967)">
<text font-family="serif" font-size="2.2001" text-anchor="start" fill="currentColor">
<tspan>L</tspan>
</text>
</g>
</a>
<a style="color:inherit;" xlink:href="textedit:///mnt/waifuh1t/repo/Restia/static/lilypond/lilypond-for-drums/text.ly:12:43:44">
<g transform="translate(52.1923, 5.1608)">
<text font-family="serif" font-size="2.2001" text-anchor="start" fill="currentColor">
<tspan>R</tspan>
</text>
</g>
</a>
<a style="color:inherit;" xlink:href="textedit:///mnt/waifuh1t/repo/Restia/static/lilypond/lilypond-for-drums/text.ly:12:41:42">
<g transform="translate(52.1923, 8.8828)">
<path transform="scale(0.0040, -0.0040)" d="M218 136c55 0 108 -28 108 -89c0 -71 -55 -121 -102 -149c-35 -21 -75 -34 -116 -34c-55 0 -108 28 -108 89c0 71 55 121 102 149c35 21 75 34 116 34z" fill="currentColor"/>
</g>
</a>
<g transform="translate(53.4315, 9.3828)">
<rect x="-0.0650" y="-3.5000" width="0.1300" height="2.8139" ry="0.0400" fill="currentColor"/>
</g>
<a style="color:inherit;" xlink:href="textedit:///mnt/waifuh1t/repo/Restia/static/lilypond/lilypond-for-drums/text.ly:13:50:51">
<g transform="translate(70.8176, 13.4967)">
<text font-family="serif" font-size="2.2001" text-anchor="start" fill="currentColor">
<tspan>R</tspan>
</text>
</g>
</a>
<a style="color:inherit;" xlink:href="textedit:///mnt/waifuh1t/repo/Restia/static/lilypond/lilypond-for-drums/text.ly:13:48:49">
<g transform="translate(70.8176, 8.8828)">
<path transform="scale(0.0040, -0.0040)" d="M218 136c55 0 108 -28 108 -89c0 -71 -55 -121 -102 -149c-35 -21 -75 -34 -116 -34c-55 0 -108 28 -108 89c0 71 55 121 102 149c35 21 75 34 116 34z" fill="currentColor"/>
</g>
</a>
<g transform="translate(72.0568, 9.3828)">
<rect x="-0.0650" y="-3.5000" width="0.1300" height="2.8139" ry="0.0400" fill="currentColor"/>
</g>
<g transform="translate(66.9834, 5.8828)">
<polygon stroke-linejoin="round" stroke-linecap="round" stroke-width="0.0800" fill="currentColor" stroke="currentColor" points="5.0984 -0.2000 5.0984 0.2000 0.0400 0.2000 0.0400 -0.2000"/>
</g>
<g transform="translate(66.9834, 6.6928)">
<polygon stroke-linejoin="round" stroke-linecap="round" stroke-width="0.0800" fill="currentColor" stroke="currentColor" points="5.0984 -0.2000 5.0984 0.2000 0.0400 0.2000 0.0400 -0.2000"/>
</g>
<g transform="translate(55.8707, 5.8828)">
<polygon stroke-linejoin="round" stroke-linecap="round" stroke-width="0.0800" fill="currentColor" stroke="currentColor" points="6.2984 -0.2000 6.2984 0.2000 0.0400 0.2000 0.0400 -0.2000"/>
</g>
<g transform="translate(61.0442, 6.6928)">
<polygon stroke-linejoin="round" stroke-linecap="round" stroke-width="0.0800" fill="currentColor" stroke="currentColor" points="1.1250 -0.2000 1.1250 0.2000 0.0400 0.2000 0.0400 -0.2000"/>
</g>
<g transform="translate(55.8707, 6.6928)">
<polygon stroke-linejoin="round" stroke-linecap="round" stroke-width="0.0800" fill="currentColor" stroke="currentColor" points="1.1250 -0.2000 1.1250 0.2000 0.0400 0.2000 0.0400 -0.2000"/>
</g>
<g transform="translate(47.1581, 5.8828)">
<polygon stroke-linejoin="round" stroke-linecap="round" stroke-width="0.0800" fill="currentColor" stroke="currentColor" points="6.2984 -0.2000 6.2984 0.2000 0.0400 0.2000 0.0400 -0.2000"/>
</g>
<g transform="translate(50.8623, 6.6928)">
<polygon stroke-linejoin="round" stroke-linecap="round" stroke-width="0.0800" fill="currentColor" stroke="currentColor" points="2.5942 -0.2000 2.5942 0.2000 0.0400 0.2000 0.0400 -0.2000"/>
</g>
<a style="color:inherit;" xlink:href="textedit:///mnt/waifuh1t/repo/Restia/static/lilypond/lilypond-for-drums/text.ly:13:28:29">
<g transform="translate(63.4092, 7.3828)">
<path transform="scale(0.0040, -0.0040)" d="M66 -500l101 327c-34 -12 -70 -23 -106 -23c-46 0 -87 33 -87 79c0 40 32 72 72 72c25 0 49 -15 57 -39c10 -28 5 -59 34 -59c16 0 55 51 60 68l46 151c-34 -12 -68 -22 -104 -22c-46 0 -87 33 -87 79c0 40 33 72 73 72c25 0 48 -15 56 -39c10 -28 5 -59 34 -59
c15 0 50 49 57 63c6 12 23 12 28 0l-179 -670c-8 -7 -17 -10 -27 -10s-20 3 -28 10z" fill="currentColor"/>
</g>
</a>
<a style="color:inherit;" xlink:href="textedit:///mnt/waifuh1t/repo/Restia/static/lilypond/lilypond-for-drums/text.ly:13:36:37">
<g transform="translate(65.8092, 13.4967)">
<text font-family="serif" font-size="2.2001" text-anchor="start" fill="currentColor">
<tspan>R</tspan>
</text>
</g>
</a>
<a style="color:inherit;" xlink:href="textedit:///mnt/waifuh1t/repo/Restia/static/lilypond/lilypond-for-drums/text.ly:13:32:33">
<g transform="translate(65.8092, 8.8828)">
<path transform="scale(0.0040, -0.0040)" d="M218 136c55 0 108 -28 108 -89c0 -71 -55 -121 -102 -149c-35 -21 -75 -34 -116 -34c-55 0 -108 28 -108 89c0 71 55 121 102 149c35 21 75 34 116 34z" fill="currentColor"/>
</g>
</a>
<g transform="translate(67.0484, 9.3828)">
<rect x="-0.0650" y="-3.5000" width="0.1300" height="2.8139" ry="0.0400" fill="currentColor"/>
</g>
<a style="color:inherit;" xlink:href="textedit:///mnt/waifuh1t/repo/Restia/static/lilypond/lilypond-for-drums/text.ly:13:43:44">
<g transform="translate(68.3134, 13.4967)">
<text font-family="serif" font-size="2.2001" text-anchor="start" fill="currentColor">
<tspan>L</tspan>
</text>
</g>
</a>
<a style="color:inherit;" xlink:href="textedit:///mnt/waifuh1t/repo/Restia/static/lilypond/lilypond-for-drums/text.ly:13:41:42">
<g transform="translate(68.3134, 8.8828)">
<path transform="scale(0.0040, -0.0040)" d="M218 136c55 0 108 -28 108 -89c0 -71 -55 -121 -102 -149c-35 -21 -75 -34 -116 -34c-55 0 -108 28 -108 89c0 71 55 121 102 149c35 21 75 34 116 34z" fill="currentColor"/>
</g>
</a>
<g transform="translate(69.5526, 9.3828)">
<rect x="-0.0650" y="-3.5000" width="0.1300" height="2.8139" ry="0.0400" fill="currentColor"/>
</g>
<a style="color:inherit;" xlink:href="textedit:///mnt/waifuh1t/repo/Restia/static/lilypond/lilypond-for-drums/text.ly:11:17:18">
<g transform="translate(21.3748, 5.2341)">
<text font-family="serif" font-size="2.2001" text-anchor="start" fill="currentColor">
<tspan>R</tspan>
</text>
</g>
</a>
<a style="color:inherit;" xlink:href="textedit:///mnt/waifuh1t/repo/Restia/static/lilypond/lilypond-for-drums/text.ly:11:16:17">
<g transform="translate(21.3748, 8.8828)">
<path transform="scale(0.0040, -0.0040)" d="M218 136c55 0 108 -28 108 -89c0 -71 -55 -121 -102 -149c-35 -21 -75 -34 -116 -34c-55 0 -108 28 -108 89c0 71 55 121 102 149c35 21 75 34 116 34z" fill="currentColor"/>
</g>
</a>
<g transform="translate(22.6140, 9.3828)">
<rect x="-0.0650" y="-3.6667" width="0.1300" height="2.9806" ry="0.0400" fill="currentColor"/>
</g>
<a style="color:inherit;" xlink:href="textedit:///mnt/waifuh1t/repo/Restia/static/lilypond/lilypond-for-drums/text.ly:11:23:24">
<g transform="translate(26.2790, 13.4967)">
<text font-family="serif" font-size="2.2001" text-anchor="start" fill="currentColor">
<tspan>L</tspan>
</text>
</g>
</a>
<a style="color:inherit;" xlink:href="textedit:///mnt/waifuh1t/repo/Restia/static/lilypond/lilypond-for-drums/text.ly:11:22:23">
<g transform="translate(26.2790, 8.8828)">
<path transform="scale(0.0040, -0.0040)" d="M218 136c55 0 108 -28 108 -89c0 -71 -55 -121 -102 -149c-35 -21 -75 -34 -116 -34c-55 0 -108 28 -108 89c0 71 55 121 102 149c35 21 75 34 116 34z" fill="currentColor"/>
</g>
</a>
<g transform="translate(27.5182, 9.3828)">
<rect x="-0.0650" y="-3.6667" width="0.1300" height="2.9806" ry="0.0400" fill="currentColor"/>
</g>
<a style="color:inherit;" xlink:href="textedit:///mnt/waifuh1t/repo/Restia/static/lilypond/lilypond-for-drums/text.ly:11:29:30">
<g transform="translate(31.1832, 13.4967)">
<text font-family="serif" font-size="2.2001" text-anchor="start" fill="currentColor">
<tspan>R</tspan>
</text>
</g>
</a>
<a style="color:inherit;" xlink:href="textedit:///mnt/waifuh1t/repo/Restia/static/lilypond/lilypond-for-drums/text.ly:11:28:29">
<g transform="translate(31.1832, 8.8828)">
<path transform="scale(0.0040, -0.0040)" d="M218 136c55 0 108 -28 108 -89c0 -71 -55 -121 -102 -149c-35 -21 -75 -34 -116 -34c-55 0 -108 28 -108 89c0 71 55 121 102 149c35 21 75 34 116 34z" fill="currentColor"/>
</g>
</a>
<g transform="translate(32.4224, 9.3828)">
<rect x="-0.0650" y="-3.6667" width="0.1300" height="2.9806" ry="0.0400" fill="currentColor"/>
</g>
<g transform="translate(47.2231, 9.3828)">
<rect x="-0.0650" y="-3.5000" width="0.1300" height="2.8139" ry="0.0400" fill="currentColor"/>
</g>
<a style="color:inherit;" xlink:href="textedit:///mnt/waifuh1t/repo/Restia/static/lilypond/lilypond-for-drums/text.ly:12:10:11">
<g transform="translate(37.2713, 5.1828)">
<text font-family="serif" font-size="2.2001" text-anchor="start" fill="currentColor">
<tspan>L</tspan>
</text>
</g>
</a>
<g transform="translate(17.7098, 9.3828)">
<rect x="-0.0650" y="-3.6667" width="0.1300" height="2.9806" ry="0.0400" fill="currentColor"/>
</g>
<a style="color:inherit;" xlink:href="textedit:///mnt/waifuh1t/repo/Restia/static/lilypond/lilypond-for-drums/text.ly:11:11:12">
<g transform="translate(16.4706, 5.2561)">
<text font-family="serif" font-size="2.2001" text-anchor="start" fill="currentColor">
<tspan>L</tspan>
</text>
</g>
</a>
<a style="color:inherit;" xlink:href="textedit:///mnt/waifuh1t/repo/Restia/static/lilypond/lilypond-for-drums/text.ly:11:8:9">
<g transform="translate(16.4706, 8.8828)">
<path transform="scale(0.0040, -0.0040)" d="M218 136c55 0 108 -28 108 -89c0 -71 -55 -121 -102 -149c-35 -21 -75 -34 -116 -34c-55 0 -108 28 -108 89c0 71 55 121 102 149c35 21 75 34 116 34z" fill="currentColor"/>
</g>
</a>
<g transform="translate(8.6658, 9.3828)">
<path transform="scale(0.0040, -0.0040)" d="M490 -250h-92c-6 0 -10 4 -10 10v480c0 6 4 10 10 10h92c6 0 10 -4 10 -10v-480c0 -6 -4 -10 -10 -10zM270 -250h-93c-6 0 -10 4 -10 10v480c0 6 4 10 10 10h93c6 0 10 -4 10 -10v-480c0 -6 -4 -10 -10 -10z" fill="currentColor"/>
</g>
<a style="color:inherit;" xlink:href="textedit:///mnt/waifuh1t/repo/Restia/static/lilypond/lilypond-for-drums/text.ly:7:4:5">
<g transform="translate(12.8658, 9.3828)">
<path transform="scale(0.0040, -0.0040)" d="M196 117h117c0 -48 27 -94 72 -94c8 0 12 -5 12 -11s-4 -12 -12 -12c-44 0 -87 13 -131 13s-87 -13 -131 -13c-8 0 -12 6 -12 12s4 11 12 11c45 0 73 46 73 94zM204 307c22 14 44 29 60 50c11 15 19 33 27 50c2 4 5 6 9 6c6 0 13 -5 13 -14v-245h72c10 0 15 -7 15 -14
s-5 -15 -15 -15h-72v-8h-117v8h-167c-23 0 -31 14 -31 23c0 3 1 5 2 6c80 93 138 207 138 330c0 10 7 19 16 16c23 -7 47 -13 71 -13s48 6 71 13c14 4 23 -9 17 -16l-284 -330h167v131c0 8 1 17 8 22z" fill="currentColor"/>
</g>
<g transform="translate(12.8658, 11.3988)">
<path transform="scale(0.0040, -0.0040)" d="M196 117h117c0 -48 27 -94 72 -94c8 0 12 -5 12 -11s-4 -12 -12 -12c-44 0 -87 13 -131 13s-87 -13 -131 -13c-8 0 -12 6 -12 12s4 11 12 11c45 0 73 46 73 94zM204 307c22 14 44 29 60 50c11 15 19 33 27 50c2 4 5 6 9 6c6 0 13 -5 13 -14v-245h72c10 0 15 -7 15 -14
s-5 -15 -15 -15h-72v-8h-117v8h-167c-23 0 -31 14 -31 23c0 3 1 5 2 6c80 93 138 207 138 330c0 10 7 19 16 16c23 -7 47 -13 71 -13s48 6 71 13c14 4 23 -9 17 -16l-284 -330h167v131c0 8 1 17 8 22z" fill="currentColor"/>
</g>
</a>
<a style="color:inherit;" xlink:href="textedit:///mnt/waifuh1t/repo/Restia/static/lilypond/lilypond-for-drums/text.ly:5:4:5">
<g transform="translate(12.8658, 2.6727)">
<rect x="1.0449" y="-2.6727" width="0.1158" height="2.5129" ry="0.0193" fill="currentColor"/>
</g>
<g transform="translate(12.8658, 2.6727)">
<path transform="scale(0.0036, -0.0036)" d="M215 137c57 0 111 -29 111 -92c0 -71 -54 -120 -101 -148c-35 -21 -74 -34 -114 -34c-57 0 -111 29 -111 92c0 71 54 120 101 148c35 21 74 34 114 34z" fill="currentColor"/>
</g>
<g transform="translate(14.0265, 3.1615)">
<text font-family="serif" font-size="2.2001" text-anchor="start" fill="currentColor">
<tspan> = 100</tspan>
</text>
</g>
</a>
<a style="color:inherit;" xlink:href="textedit:///mnt/waifuh1t/repo/Restia/static/lilypond/lilypond-for-drums/text.ly:12:23:24">
<g transform="translate(42.2797, 5.1828)">
<text font-family="serif" font-size="2.2001" text-anchor="start" fill="currentColor">
<tspan>L</tspan>
</text>
</g>
</a>
<a style="color:inherit;" xlink:href="textedit:///mnt/waifuh1t/repo/Restia/static/lilypond/lilypond-for-drums/text.ly:12:8:9">
<g transform="translate(37.2713, 8.8828)">
<path transform="scale(0.0040, -0.0040)" d="M218 136c55 0 108 -28 108 -89c0 -71 -55 -121 -102 -149c-35 -21 -75 -34 -116 -34c-55 0 -108 28 -108 89c0 71 55 121 102 149c35 21 75 34 116 34z" fill="currentColor"/>
</g>
</a>
<a style="color:inherit;" xlink:href="textedit:///mnt/waifuh1t/repo/Restia/static/lilypond/lilypond-for-drums/text.ly:12:15:16">
<g transform="translate(39.7755, 8.8828)">
<path transform="scale(0.0040, -0.0040)" d="M218 136c55 0 108 -28 108 -89c0 -71 -55 -121 -102 -149c-35 -21 -75 -34 -116 -34c-55 0 -108 28 -108 89c0 71 55 121 102 149c35 21 75 34 116 34z" fill="currentColor"/>
</g>
</a>
<g transform="translate(41.0147, 9.3828)">
<rect x="-0.0650" y="-3.5000" width="0.1300" height="2.8139" ry="0.0400" fill="currentColor"/>
</g>
<a style="color:inherit;" xlink:href="textedit:///mnt/waifuh1t/repo/Restia/static/lilypond/lilypond-for-drums/text.ly:12:17:18">
<g transform="translate(39.7755, 5.1608)">
<text font-family="serif" font-size="2.2001" text-anchor="start" fill="currentColor">
<tspan>R</tspan>
</text>
</g>
</a>
<a style="color:inherit;" xlink:href="textedit:///mnt/waifuh1t/repo/Restia/static/lilypond/lilypond-for-drums/text.ly:12:22:23">
<g transform="translate(42.2797, 8.8828)">
<path transform="scale(0.0040, -0.0040)" d="M218 136c55 0 108 -28 108 -89c0 -71 -55 -121 -102 -149c-35 -21 -75 -34 -116 -34c-55 0 -108 28 -108 89c0 71 55 121 102 149c35 21 75 34 116 34z" fill="currentColor"/>
</g>
</a>
<g transform="translate(43.5189, 9.3828)">
<rect x="-0.0650" y="-3.5000" width="0.1300" height="2.8139" ry="0.0400" fill="currentColor"/>
</g>
<a style="color:inherit;" xlink:href="textedit:///mnt/waifuh1t/repo/Restia/static/lilypond/lilypond-for-drums/text.ly:12:29:30">
<g transform="translate(45.9839, 5.1828)">
<text font-family="serif" font-size="2.2001" text-anchor="start" fill="currentColor">
<tspan>L</tspan>
</text>
</g>
</a>
<a style="color:inherit;" xlink:href="textedit:///mnt/waifuh1t/repo/Restia/static/lilypond/lilypond-for-drums/text.ly:12:28:29">
<g transform="translate(45.9839, 8.8828)">
<path transform="scale(0.0040, -0.0040)" d="M218 136c55 0 108 -28 108 -89c0 -71 -55 -121 -102 -149c-35 -21 -75 -34 -116 -34c-55 0 -108 28 -108 89c0 71 55 121 102 149c35 21 75 34 116 34z" fill="currentColor"/>
</g>
</a>
<g transform="translate(38.5105, 9.3828)">
<rect x="-0.0650" y="-3.5000" width="0.1300" height="2.8139" ry="0.0400" fill="currentColor"/>
</g>
</svg>
