<svg xmlns="http://www.w3.org/2000/svg" xmlns:xlink="http://www.w3.org/1999/xlink" version="1.2" width="86.81mm" height="21.49mm" viewBox="8.5358 -0.0000 49.4004 12.2273">
<style type="text/css">
<![CDATA[
tspan { white-space: pre; }
]]>
</style>
<g transform="translate(8.5358, 9.7023)">
<line stroke-linejoin="round" stroke-linecap="round" stroke-width="0.1000" stroke="currentColor" x1="0.0500" y1="0" x2="49.3504" y2="0"/>
</g>
<g transform="translate(8.5358, 8.7023)">
<line stroke-linejoin="round" stroke-linecap="round" stroke-width="0.1000" stroke="currentColor" x1="0.0500" y1="0" x2="49.3504" y2="0"/>
</g>
<g transform="translate(8.5358, 7.7023)">
<line stroke-linejoin="round" stroke-linecap="round" stroke-width="0.1000" stroke="currentColor" x1="0.0500" y1="0" x2="49.3504" y2="0"/>
</g>
<g transform="translate(8.5358, 6.7023)">
<line stroke-linejoin="round" stroke-linecap="round" stroke-width="0.1000" stroke="currentColor" x1="0.0500" y1="0" x2="49.3504" y2="0"/>
</g>
<g transform="translate(8.5358, 5.7023)">
<line stroke-linejoin="round" stroke-linecap="round" stroke-width="0.1000" stroke="currentColor" x1="0.0500" y1="0" x2="49.3504" y2="0"/>
</g>
<g transform="translate(57.7462, 7.7023)">
<rect x="0.0000" y="-2.0000" width="0.1900" height="4.0000" ry="0.0000" fill="currentColor"/>
</g>
<g transform="translate(36.6005, 7.7023)">
<rect x="0.0000" y="-2.0000" width="0.1900" height="4.0000" ry="0.0000" fill="currentColor"/>
</g>
<g transform="translate(43.9545, 7.7023)">
<rect x="-0.0650" y="-4.4054" width="0.1300" height="3.7193" ry="0.0400" fill="currentColor"/>
</g>
<a style="color:inherit;" xlink:href="textedit:///mnt/waifuh1t/repo/Restia/static/lilypond/lilypond-for-drums/tie.ly:15:16:17">
<g transform="translate(42.7153, 10.7023)">
<path transform="scale(0.0040, -0.0040)" d="M-23 -116c0 28 11 42 40 42c33 0 78 -13 119 -31l-132 158c-7 9 -10 17 -10 25c0 34 50 66 87 99c25 22 37 52 37 83c0 24 -8 49 -25 69l-35 42c-3 3 -4 7 -4 10c0 9 9 15 17 15c4 0 8 -1 11 -5l151 -180c7 -9 10 -17 10 -25c0 -34 -50 -66 -87 -99
c-25 -22 -37 -52 -37 -83c0 -24 7 -49 24 -69l84 -99c3 -3 4 -7 4 -10c0 -9 -8 -16 -16 -16c-4 0 -9 2 -12 6c-18 21 -63 38 -97 38c-41 0 -53 -26 -53 -67c0 -35 11 -74 28 -94c7 -8 -5 -19 -12 -11c-45 54 -92 148 -92 202z" fill="currentColor"/>
</g>
</a>
<a style="color:inherit;" xlink:href="textedit:///mnt/waifuh1t/repo/Restia/static/lilypond/lilypond-for-drums/tie.ly:12:24:25">
<g transform="translate(42.7153, 7.2023)">
<path transform="scale(0.0040, -0.0040)" d="M218 136c55 0 108 -28 108 -89c0 -71 -55 -121 -102 -149c-35 -21 -75 -34 -116 -34c-55 0 -108 28 -108 89c0 71 55 121 102 149c35 21 75 34 116 34z" fill="currentColor"/>
</g>
</a>
<a style="color:inherit;" xlink:href="textedit:///mnt/waifuh1t/repo/Restia/static/lilypond/lilypond-for-drums/tie.ly:12:20:21">
<g transform="translate(42.7153, 6.2023)">
<path transform="scale(0.0040, -0.0040)" d="M163 36l119 97c3 2 6 3 9 3s7 -1 10 -3l20 -16c3 -3 5 -8 5 -12s-2 -9 -5 -12l-115 -93l115 -93c3 -3 5 -8 5 -12s-2 -9 -5 -12l-20 -16c-3 -2 -7 -3 -10 -3s-6 1 -9 3l-119 97l-119 -97c-3 -2 -6 -3 -9 -3s-7 1 -10 3l-20 16c-3 3 -5 8 -5 12s2 9 5 12l115 93l-115 93
c-3 3 -5 8 -5 12s2 9 5 12l20 16c3 2 7 3 10 3s6 -1 9 -3z" fill="currentColor"/>
</g>
</a>
<a style="color:inherit;" xlink:href="textedit:///mnt/waifuh1t/repo/Restia/static/lilypond/lilypond-for-drums/tie.ly:12:30:31">
<g transform="translate(45.2195, 6.2023)">
<path transform="scale(0.0040, -0.0040)" d="M163 36l119 97c3 2 6 3 9 3s7 -1 10 -3l20 -16c3 -3 5 -8 5 -12s-2 -9 -5 -12l-115 -93l115 -93c3 -3 5 -8 5 -12s-2 -9 -5 -12l-20 -16c-3 -2 -7 -3 -10 -3s-6 1 -9 3l-119 97l-119 -97c-3 -2 -6 -3 -9 -3s-7 1 -10 3l-20 16c-3 3 -5 8 -5 12s2 9 5 12l115 93l-115 93
c-3 3 -5 8 -5 12s2 9 5 12l20 16c3 2 7 3 10 3s6 -1 9 -3z" fill="currentColor"/>
</g>
</a>
<g transform="translate(46.4587, 7.7023)">
<rect x="-0.0650" y="-4.1955" width="0.1300" height="2.2751" ry="0.0400" fill="currentColor"/>
</g>
<a style="color:inherit;" xlink:href="textedit:///mnt/waifuh1t/repo/Restia/static/lilypond/lilypond-for-drums/tie.ly:12:34:35">
<g transform="translate(47.7237, 6.2023)">
<path transform="scale(0.0040, -0.0040)" d="M163 36l119 97c3 2 6 3 9 3s7 -1 10 -3l20 -16c3 -3 5 -8 5 -12s-2 -9 -5 -12l-115 -93l115 -93c3 -3 5 -8 5 -12s-2 -9 -5 -12l-20 -16c-3 -2 -7 -3 -10 -3s-6 1 -9 3l-119 97l-119 -97c-3 -2 -6 -3 -9 -3s-7 1 -10 3l-20 16c-3 3 -5 8 -5 12s2 9 5 12l115 93l-115 93
c-3 3 -5 8 -5 12s2 9 5 12l20 16c3 2 7 3 10 3s6 -1 9 -3z" fill="currentColor"/>
</g>
</a>
<a style="color:inherit;" xlink:href="textedit:///mnt/waifuh1t/repo/Restia/static/lilypond/lilypond-for-drums/tie.ly:15:19:20">
<g transform="translate(47.7237, 9.2023)">
<path transform="scale(0.0040, -0.0040)" d="M218 136c55 0 108 -28 108 -89c0 -71 -55 -121 -102 -149c-35 -21 -75 -34 -116 -34c-55 0 -108 28 -108 89c0 71 55 121 102 149c35 21 75 34 116 34z" fill="currentColor"/>
</g>
</a>
<g transform="translate(48.9629, 7.7023)">
<rect x="-0.0650" y="-3.8100" width="0.1300" height="1.8896" ry="0.0400" fill="currentColor"/>
</g>
<g transform="translate(39.1945, 7.7023)">
<rect x="-0.0650" y="-4.8045" width="0.1300" height="2.3045" ry="0.0400" fill="currentColor"/>
</g>
<g transform="translate(17.6448, 3.8923)">
<polygon stroke-linejoin="round" stroke-linecap="round" stroke-width="0.0800" fill="currentColor" stroke="currentColor" points="7.6026 -0.2000 7.6026 0.2000 0.0400 0.2000 0.0400 -0.2000"/>
</g>
<g transform="translate(37.7735, 7.7023)">
<rect x="-0.0650" y="1.6861" width="0.1300" height="2.1239" ry="0.0400" fill="currentColor"/>
</g>
<a style="color:inherit;" xlink:href="textedit:///mnt/waifuh1t/repo/Restia/static/lilypond/lilypond-for-drums/tie.ly:12:14:15">
<g transform="translate(40.2111, 6.2023)">
<path transform="scale(0.0040, -0.0040)" d="M163 36l119 97c3 2 6 3 9 3s7 -1 10 -3l20 -16c3 -3 5 -8 5 -12s-2 -9 -5 -12l-115 -93l115 -93c3 -3 5 -8 5 -12s-2 -9 -5 -12l-20 -16c-3 -2 -7 -3 -10 -3s-6 1 -9 3l-119 97l-119 -97c-3 -2 -6 -3 -9 -3s-7 1 -10 3l-20 16c-3 3 -5 8 -5 12s2 9 5 12l115 93l-115 93
c-3 3 -5 8 -5 12s2 9 5 12l20 16c3 2 7 3 10 3s6 -1 9 -3z" fill="currentColor"/>
</g>
</a>
<a style="color:inherit;" xlink:href="textedit:///mnt/waifuh1t/repo/Restia/static/lilypond/lilypond-for-drums/tie.ly:15:12:13">
<g transform="translate(40.2111, 9.2023)">
<path transform="scale(0.0040, -0.0040)" d="M218 136c55 0 108 -28 108 -89c0 -71 -55 -121 -102 -149c-35 -21 -75 -34 -116 -34c-55 0 -108 28 -108 89c0 71 55 121 102 149c35 21 75 34 116 34z" fill="currentColor"/>
</g>
</a>
<g transform="translate(41.4503, 7.7023)">
<rect x="-0.0650" y="-4.6154" width="0.1300" height="2.6950" ry="0.0400" fill="currentColor"/>
</g>
<g transform="translate(40.2761, 7.7023)">
<rect x="-0.0650" y="1.6861" width="0.1300" height="2.1239" ry="0.0400" fill="currentColor"/>
</g>
<a style="color:inherit;" xlink:href="textedit:///mnt/waifuh1t/repo/Restia/static/lilypond/lilypond-for-drums/tie.ly:12:49:50">
<g transform="translate(55.2363, 6.2023)">
<path transform="scale(0.0040, -0.0040)" d="M163 36l119 97c3 2 6 3 9 3s7 -1 10 -3l20 -16c3 -3 5 -8 5 -12s-2 -9 -5 -12l-115 -93l115 -93c3 -3 5 -8 5 -12s-2 -9 -5 -12l-20 -16c-3 -2 -7 -3 -10 -3s-6 1 -9 3l-119 97l-119 -97c-3 -2 -6 -3 -9 -3s-7 1 -10 3l-20 16c-3 3 -5 8 -5 12s2 9 5 12l115 93l-115 93
c-3 3 -5 8 -5 12s2 9 5 12l20 16c3 2 7 3 10 3s6 -1 9 -3z" fill="currentColor"/>
</g>
</a>
<g transform="translate(56.4756, 7.7023)">
<rect x="-0.0650" y="-3.8100" width="0.1300" height="1.8896" ry="0.0400" fill="currentColor"/>
</g>
<g transform="translate(48.8979, 3.8923)">
<polygon stroke-linejoin="round" stroke-linecap="round" stroke-width="0.0800" fill="currentColor" stroke="currentColor" points="7.6026 -0.2000 7.6026 0.2000 0.0400 0.2000 0.0400 -0.2000"/>
</g>
<g transform="translate(47.7237, 11.5123)">
<polygon stroke-linejoin="round" stroke-linecap="round" stroke-width="0.0800" fill="currentColor" stroke="currentColor" points="2.5942 -0.2000 2.5942 0.2000 0.0400 0.2000 0.0400 -0.2000"/>
</g>
<g transform="translate(39.1295, 2.8923)">
<polygon stroke-linejoin="round" stroke-linecap="round" stroke-width="0.0800" fill="currentColor" stroke="currentColor" points="7.3543 0.4200 7.3543 0.8200 0.0400 0.2000 0.0400 -0.2000"/>
</g>
<g transform="translate(37.7085, 11.5123)">
<polygon stroke-linejoin="round" stroke-linecap="round" stroke-width="0.0800" fill="currentColor" stroke="currentColor" points="2.5926 -0.2000 2.5926 0.2000 0.0400 0.2000 0.0400 -0.2000"/>
</g>
<g transform="translate(27.6616, 3.5123)">
<polygon stroke-linejoin="round" stroke-linecap="round" stroke-width="0.0800" fill="currentColor" stroke="currentColor" points="7.8223 -0.8200 7.8223 -0.4200 0.0400 0.2000 0.0400 -0.2000"/>
</g>
<a style="color:inherit;" xlink:href="textedit:///mnt/waifuh1t/repo/Restia/static/lilypond/lilypond-for-drums/tie.ly:14:27:28">
<g transform="translate(33.9729, 7.7023)">
<path stroke-width="0.0800" stroke-linejoin="round" stroke-linecap="round" stroke="currentColor" fill="currentColor" d="M1.5042 2.0000C1.9727 2.5574 2.9321 2.5574 3.4005 2.0000L3.4005 2.0000C2.9321 2.4374 1.9727 2.4374 1.5042 2.0000z"/>
</g>
</a>
<a style="color:inherit;" xlink:href="textedit:///mnt/waifuh1t/repo/Restia/static/lilypond/lilypond-for-drums/tie.ly:11:51:52">
<g transform="translate(33.9729, 7.7023)">
<path stroke-width="0.0800" stroke-linejoin="round" stroke-linecap="round" stroke="currentColor" fill="currentColor" d="M1.8860 -3.0000C2.3063 -3.5132 3.1152 -3.5132 3.5355 -3.0000L3.5355 -3.0000C3.1152 -3.3932 2.3063 -3.3932 1.8860 -3.0000z"/>
</g>
</a>
<g transform="translate(26.4874, 11.5123)">
<polygon stroke-linejoin="round" stroke-linecap="round" stroke-width="0.0800" fill="currentColor" stroke="currentColor" points="2.5942 -0.2000 2.5942 0.2000 0.0400 0.2000 0.0400 -0.2000"/>
</g>
<g transform="translate(50.2929, 7.7023)">
<rect x="-0.0650" y="1.6861" width="0.1300" height="2.1239" ry="0.0400" fill="currentColor"/>
</g>
<g transform="translate(47.7887, 7.7023)">
<rect x="-0.0650" y="1.6861" width="0.1300" height="2.1239" ry="0.0400" fill="currentColor"/>
</g>
<a style="color:inherit;" xlink:href="textedit:///mnt/waifuh1t/repo/Restia/static/lilypond/lilypond-for-drums/tie.ly:12:36:37">
<g transform="translate(50.2279, 6.2023)">
<path transform="scale(0.0040, -0.0040)" d="M163 36l119 97c3 2 6 3 9 3s7 -1 10 -3l20 -16c3 -3 5 -8 5 -12s-2 -9 -5 -12l-115 -93l115 -93c3 -3 5 -8 5 -12s-2 -9 -5 -12l-20 -16c-3 -2 -7 -3 -10 -3s-6 1 -9 3l-119 97l-119 -97c-3 -2 -6 -3 -9 -3s-7 1 -10 3l-20 16c-3 3 -5 8 -5 12s2 9 5 12l115 93l-115 93
c-3 3 -5 8 -5 12s2 9 5 12l20 16c3 2 7 3 10 3s6 -1 9 -3z" fill="currentColor"/>
</g>
</a>
<a style="color:inherit;" xlink:href="textedit:///mnt/waifuh1t/repo/Restia/static/lilypond/lilypond-for-drums/tie.ly:15:23:24">
<g transform="translate(50.2279, 9.2023)">
<path transform="scale(0.0040, -0.0040)" d="M218 136c55 0 108 -28 108 -89c0 -71 -55 -121 -102 -149c-35 -21 -75 -34 -116 -34c-55 0 -108 28 -108 89c0 71 55 121 102 149c35 21 75 34 116 34z" fill="currentColor"/>
</g>
</a>
<g transform="translate(51.4671, 7.7023)">
<rect x="-0.0650" y="-3.8100" width="0.1300" height="1.8896" ry="0.0400" fill="currentColor"/>
</g>
<a style="color:inherit;" xlink:href="textedit:///mnt/waifuh1t/repo/Restia/static/lilypond/lilypond-for-drums/tie.ly:12:39:40">
<g transform="translate(52.7321, 6.2023)">
<path transform="scale(0.0040, -0.0040)" d="M163 36l119 97c3 2 6 3 9 3s7 -1 10 -3l20 -16c3 -3 5 -8 5 -12s-2 -9 -5 -12l-115 -93l115 -93c3 -3 5 -8 5 -12s-2 -9 -5 -12l-20 -16c-3 -2 -7 -3 -10 -3s-6 1 -9 3l-119 97l-119 -97c-3 -2 -6 -3 -9 -3s-7 1 -10 3l-20 16c-3 3 -5 8 -5 12s2 9 5 12l115 93l-115 93
c-3 3 -5 8 -5 12s2 9 5 12l20 16c3 2 7 3 10 3s6 -1 9 -3z" fill="currentColor"/>
</g>
</a>
<a style="color:inherit;" xlink:href="textedit:///mnt/waifuh1t/repo/Restia/static/lilypond/lilypond-for-drums/tie.ly:12:43:44">
<g transform="translate(52.7321, 7.2023)">
<path transform="scale(0.0040, -0.0040)" d="M218 136c55 0 108 -28 108 -89c0 -71 -55 -121 -102 -149c-35 -21 -75 -34 -116 -34c-55 0 -108 28 -108 89c0 71 55 121 102 149c35 21 75 34 116 34z" fill="currentColor"/>
</g>
</a>
<a style="color:inherit;" xlink:href="textedit:///mnt/waifuh1t/repo/Restia/static/lilypond/lilypond-for-drums/tie.ly:15:25:26">
<g transform="translate(52.7321, 10.7023)">
<path transform="scale(0.0040, -0.0040)" d="M-23 -116c0 28 11 42 40 42c33 0 78 -13 119 -31l-132 158c-7 9 -10 17 -10 25c0 34 50 66 87 99c25 22 37 52 37 83c0 24 -8 49 -25 69l-35 42c-3 3 -4 7 -4 10c0 9 9 15 17 15c4 0 8 -1 11 -5l151 -180c7 -9 10 -17 10 -25c0 -34 -50 -66 -87 -99
c-25 -22 -37 -52 -37 -83c0 -24 7 -49 24 -69l84 -99c3 -3 4 -7 4 -10c0 -9 -8 -16 -16 -16c-4 0 -9 2 -12 6c-18 21 -63 38 -97 38c-41 0 -53 -26 -53 -67c0 -35 11 -74 28 -94c7 -8 -5 -19 -12 -11c-45 54 -92 148 -92 202z" fill="currentColor"/>
</g>
</a>
<g transform="translate(53.9713, 7.7023)">
<rect x="-0.0650" y="-3.8100" width="0.1300" height="3.1239" ry="0.0400" fill="currentColor"/>
</g>
<a style="color:inherit;" xlink:href="textedit:///mnt/waifuh1t/repo/Restia/static/lilypond/lilypond-for-drums/tie.ly:11:16:17">
<g transform="translate(21.4790, 6.2023)">
<path transform="scale(0.0040, -0.0040)" d="M163 36l119 97c3 2 6 3 9 3s7 -1 10 -3l20 -16c3 -3 5 -8 5 -12s-2 -9 -5 -12l-115 -93l115 -93c3 -3 5 -8 5 -12s-2 -9 -5 -12l-20 -16c-3 -2 -7 -3 -10 -3s-6 1 -9 3l-119 97l-119 -97c-3 -2 -6 -3 -9 -3s-7 1 -10 3l-20 16c-3 3 -5 8 -5 12s2 9 5 12l115 93l-115 93
c-3 3 -5 8 -5 12s2 9 5 12l20 16c3 2 7 3 10 3s6 -1 9 -3z" fill="currentColor"/>
</g>
</a>
<a style="color:inherit;" xlink:href="textedit:///mnt/waifuh1t/repo/Restia/static/lilypond/lilypond-for-drums/tie.ly:11:20:21">
<g transform="translate(21.4790, 7.2023)">
<path transform="scale(0.0040, -0.0040)" d="M218 136c55 0 108 -28 108 -89c0 -71 -55 -121 -102 -149c-35 -21 -75 -34 -116 -34c-55 0 -108 28 -108 89c0 71 55 121 102 149c35 21 75 34 116 34z" fill="currentColor"/>
</g>
</a>
<a style="color:inherit;" xlink:href="textedit:///mnt/waifuh1t/repo/Restia/static/lilypond/lilypond-for-drums/tie.ly:14:12:13">
<g transform="translate(21.4790, 10.7023)">
<path transform="scale(0.0040, -0.0040)" d="M-23 -116c0 28 11 42 40 42c33 0 78 -13 119 -31l-132 158c-7 9 -10 17 -10 25c0 34 50 66 87 99c25 22 37 52 37 83c0 24 -8 49 -25 69l-35 42c-3 3 -4 7 -4 10c0 9 9 15 17 15c4 0 8 -1 11 -5l151 -180c7 -9 10 -17 10 -25c0 -34 -50 -66 -87 -99
c-25 -22 -37 -52 -37 -83c0 -24 7 -49 24 -69l84 -99c3 -3 4 -7 4 -10c0 -9 -8 -16 -16 -16c-4 0 -9 2 -12 6c-18 21 -63 38 -97 38c-41 0 -53 -26 -53 -67c0 -35 11 -74 28 -94c7 -8 -5 -19 -12 -11c-45 54 -92 148 -92 202z" fill="currentColor"/>
</g>
</a>
<g transform="translate(22.7182, 7.7023)">
<rect x="-0.0650" y="-3.8100" width="0.1300" height="3.1239" ry="0.0400" fill="currentColor"/>
</g>
<a style="color:inherit;" xlink:href="textedit:///mnt/waifuh1t/repo/Restia/static/lilypond/lilypond-for-drums/tie.ly:11:26:27">
<g transform="translate(23.9832, 6.2023)">
<path transform="scale(0.0040, -0.0040)" d="M163 36l119 97c3 2 6 3 9 3s7 -1 10 -3l20 -16c3 -3 5 -8 5 -12s-2 -9 -5 -12l-115 -93l115 -93c3 -3 5 -8 5 -12s-2 -9 -5 -12l-20 -16c-3 -2 -7 -3 -10 -3s-6 1 -9 3l-119 97l-119 -97c-3 -2 -6 -3 -9 -3s-7 1 -10 3l-20 16c-3 3 -5 8 -5 12s2 9 5 12l115 93l-115 93
c-3 3 -5 8 -5 12s2 9 5 12l20 16c3 2 7 3 10 3s6 -1 9 -3z" fill="currentColor"/>
</g>
</a>
<g transform="translate(25.2224, 7.7023)">
<rect x="-0.0650" y="-3.8100" width="0.1300" height="1.8896" ry="0.0400" fill="currentColor"/>
</g>
<a style="color:inherit;" xlink:href="textedit:///mnt/waifuh1t/repo/Restia/static/lilypond/lilypond-for-drums/tie.ly:11:30:31">
<g transform="translate(26.4874, 6.2023)">
<path transform="scale(0.0040, -0.0040)" d="M163 36l119 97c3 2 6 3 9 3s7 -1 10 -3l20 -16c3 -3 5 -8 5 -12s-2 -9 -5 -12l-115 -93l115 -93c3 -3 5 -8 5 -12s-2 -9 -5 -12l-20 -16c-3 -2 -7 -3 -10 -3s-6 1 -9 3l-119 97l-119 -97c-3 -2 -6 -3 -9 -3s-7 1 -10 3l-20 16c-3 3 -5 8 -5 12s2 9 5 12l115 93l-115 93
c-3 3 -5 8 -5 12s2 9 5 12l20 16c3 2 7 3 10 3s6 -1 9 -3z" fill="currentColor"/>
</g>
</a>
<g transform="translate(27.7266, 7.7023)">
<rect x="-0.0650" y="-4.1951" width="0.1300" height="2.2748" ry="0.0400" fill="currentColor"/>
</g>
<a style="color:inherit;" xlink:href="textedit:///mnt/waifuh1t/repo/Restia/static/lilypond/lilypond-for-drums/tie.ly:11:8:9">
<g transform="translate(16.4706, 6.2023)">
<path transform="scale(0.0040, -0.0040)" d="M163 36l119 97c3 2 6 3 9 3s7 -1 10 -3l20 -16c3 -3 5 -8 5 -12s-2 -9 -5 -12l-115 -93l115 -93c3 -3 5 -8 5 -12s-2 -9 -5 -12l-20 -16c-3 -2 -7 -3 -10 -3s-6 1 -9 3l-119 97l-119 -97c-3 -2 -6 -3 -9 -3s-7 1 -10 3l-20 16c-3 3 -5 8 -5 12s2 9 5 12l115 93l-115 93
c-3 3 -5 8 -5 12s2 9 5 12l20 16c3 2 7 3 10 3s6 -1 9 -3z" fill="currentColor"/>
</g>
</a>
<a style="color:inherit;" xlink:href="textedit:///mnt/waifuh1t/repo/Restia/static/lilypond/lilypond-for-drums/tie.ly:14:8:9">
<g transform="translate(16.4706, 9.2023)">
<path transform="scale(0.0040, -0.0040)" d="M218 136c55 0 108 -28 108 -89c0 -71 -55 -121 -102 -149c-35 -21 -75 -34 -116 -34c-55 0 -108 28 -108 89c0 71 55 121 102 149c35 21 75 34 116 34z" fill="currentColor"/>
</g>
</a>
<g transform="translate(8.6658, 7.7023)">
<path transform="scale(0.0040, -0.0040)" d="M490 -250h-92c-6 0 -10 4 -10 10v480c0 6 4 10 10 10h92c6 0 10 -4 10 -10v-480c0 -6 -4 -10 -10 -10zM270 -250h-93c-6 0 -10 4 -10 10v480c0 6 4 10 10 10h93c6 0 10 -4 10 -10v-480c0 -6 -4 -10 -10 -10z" fill="currentColor"/>
</g>
<a style="color:inherit;" xlink:href="textedit:///mnt/waifuh1t/repo/Restia/static/lilypond/lilypond-for-drums/tie.ly:7:4:5">
<g transform="translate(12.8658, 7.7023)">
<path transform="scale(0.0040, -0.0040)" d="M196 117h117c0 -48 27 -94 72 -94c8 0 12 -5 12 -11s-4 -12 -12 -12c-44 0 -87 13 -131 13s-87 -13 -131 -13c-8 0 -12 6 -12 12s4 11 12 11c45 0 73 46 73 94zM204 307c22 14 44 29 60 50c11 15 19 33 27 50c2 4 5 6 9 6c6 0 13 -5 13 -14v-245h72c10 0 15 -7 15 -14
s-5 -15 -15 -15h-72v-8h-117v8h-167c-23 0 -31 14 -31 23c0 3 1 5 2 6c80 93 138 207 138 330c0 10 7 19 16 16c23 -7 47 -13 71 -13s48 6 71 13c14 4 23 -9 17 -16l-284 -330h167v131c0 8 1 17 8 22z" fill="currentColor"/>
</g>
<g transform="translate(12.8658, 9.7183)">
<path transform="scale(0.0040, -0.0040)" d="M196 117h117c0 -48 27 -94 72 -94c8 0 12 -5 12 -11s-4 -12 -12 -12c-44 0 -87 13 -131 13s-87 -13 -131 -13c-8 0 -12 6 -12 12s4 11 12 11c45 0 73 46 73 94zM204 307c22 14 44 29 60 50c11 15 19 33 27 50c2 4 5 6 9 6c6 0 13 -5 13 -14v-245h72c10 0 15 -7 15 -14
s-5 -15 -15 -15h-72v-8h-117v8h-167c-23 0 -31 14 -31 23c0 3 1 5 2 6c80 93 138 207 138 330c0 10 7 19 16 16c23 -7 47 -13 71 -13s48 6 71 13c14 4 23 -9 17 -16l-284 -330h167v131c0 8 1 17 8 22z" fill="currentColor"/>
</g>
</a>
<a style="color:inherit;" xlink:href="textedit:///mnt/waifuh1t/repo/Restia/static/lilypond/lilypond-for-drums/tie.ly:5:4:5">
<g transform="translate(12.8658, 2.6727)">
<rect x="1.0449" y="-2.6727" width="0.1158" height="2.5129" ry="0.0193" fill="currentColor"/>
</g>
<g transform="translate(12.8658, 2.6727)">
<path transform="scale(0.0036, -0.0036)" d="M215 137c57 0 111 -29 111 -92c0 -71 -54 -120 -101 -148c-35 -21 -74 -34 -114 -34c-57 0 -111 29 -111 92c0 71 54 120 101 148c35 21 74 34 114 34z" fill="currentColor"/>
</g>
<g transform="translate(14.0265, 3.1615)">
<text font-family="serif" font-size="2.2001" text-anchor="start" fill="currentColor">
<tspan> = 100</tspan>
</text>
</g>
</a>
<g transform="translate(17.7098, 7.7023)">
<rect x="-0.0650" y="-3.8100" width="0.1300" height="1.8896" ry="0.0400" fill="currentColor"/>
</g>
<a style="color:inherit;" xlink:href="textedit:///mnt/waifuh1t/repo/Restia/static/lilypond/lilypond-for-drums/tie.ly:14:15:16">
<g transform="translate(26.4874, 9.2023)">
<path transform="scale(0.0040, -0.0040)" d="M218 136c55 0 108 -28 108 -89c0 -71 -55 -121 -102 -149c-35 -21 -75 -34 -116 -34c-55 0 -108 28 -108 89c0 71 55 121 102 149c35 21 75 34 116 34z" fill="currentColor"/>
</g>
</a>
<g transform="translate(16.5356, 7.7023)">
<rect x="-0.0650" y="1.6861" width="0.1300" height="2.6472" ry="0.0400" fill="currentColor"/>
</g>
<a style="color:inherit;" xlink:href="textedit:///mnt/waifuh1t/repo/Restia/static/lilypond/lilypond-for-drums/tie.ly:11:12:13">
<g transform="translate(18.9748, 6.2023)">
<path transform="scale(0.0040, -0.0040)" d="M163 36l119 97c3 2 6 3 9 3s7 -1 10 -3l20 -16c3 -3 5 -8 5 -12s-2 -9 -5 -12l-115 -93l115 -93c3 -3 5 -8 5 -12s-2 -9 -5 -12l-20 -16c-3 -2 -7 -3 -10 -3s-6 1 -9 3l-119 97l-119 -97c-3 -2 -6 -3 -9 -3s-7 1 -10 3l-20 16c-3 3 -5 8 -5 12s2 9 5 12l115 93l-115 93
c-3 3 -5 8 -5 12s2 9 5 12l20 16c3 2 7 3 10 3s6 -1 9 -3z" fill="currentColor"/>
</g>
</a>
<g transform="translate(20.2140, 7.7023)">
<rect x="-0.0650" y="-3.8100" width="0.1300" height="1.8896" ry="0.0400" fill="currentColor"/>
</g>
<a style="color:inherit;" xlink:href="textedit:///mnt/waifuh1t/repo/Restia/static/lilypond/lilypond-for-drums/tie.ly:14:24:25">
<g transform="translate(33.9729, 9.2023)">
<path transform="scale(0.0040, -0.0040)" d="M218 136c55 0 108 -28 108 -89c0 -71 -55 -121 -102 -149c-35 -21 -75 -34 -116 -34c-55 0 -108 28 -108 89c0 71 55 121 102 149c35 21 75 34 116 34z" fill="currentColor"/>
</g>
</a>
<a style="color:inherit;" xlink:href="textedit:///mnt/waifuh1t/repo/Restia/static/lilypond/lilypond-for-drums/tie.ly:11:36:37">
<g transform="translate(31.4958, 6.2023)">
<path transform="scale(0.0040, -0.0040)" d="M163 36l119 97c3 2 6 3 9 3s7 -1 10 -3l20 -16c3 -3 5 -8 5 -12s-2 -9 -5 -12l-115 -93l115 -93c3 -3 5 -8 5 -12s-2 -9 -5 -12l-20 -16c-3 -2 -7 -3 -10 -3s-6 1 -9 3l-119 97l-119 -97c-3 -2 -6 -3 -9 -3s-7 1 -10 3l-20 16c-3 3 -5 8 -5 12s2 9 5 12l115 93l-115 93
c-3 3 -5 8 -5 12s2 9 5 12l20 16c3 2 7 3 10 3s6 -1 9 -3z" fill="currentColor"/>
</g>
</a>
<a style="color:inherit;" xlink:href="textedit:///mnt/waifuh1t/repo/Restia/static/lilypond/lilypond-for-drums/tie.ly:11:40:41">
<g transform="translate(31.4958, 7.2023)">
<path transform="scale(0.0040, -0.0040)" d="M218 136c55 0 108 -28 108 -89c0 -71 -55 -121 -102 -149c-35 -21 -75 -34 -116 -34c-55 0 -108 28 -108 89c0 71 55 121 102 149c35 21 75 34 116 34z" fill="currentColor"/>
</g>
</a>
<a style="color:inherit;" xlink:href="textedit:///mnt/waifuh1t/repo/Restia/static/lilypond/lilypond-for-drums/tie.ly:14:21:22">
<g transform="translate(31.4958, 9.7023)">
<path transform="scale(0.0040, -0.0040)" d="M72 -250l117 326c-34 -12 -69 -22 -105 -22c-46 0 -87 33 -87 79c0 40 33 72 73 72c25 0 48 -15 56 -39c10 -28 6 -59 35 -59c16 0 54 48 61 63c6 12 23 12 28 0l-123 -420c-8 -7 -17 -10 -27 -10s-20 3 -28 10z" fill="currentColor"/>
</g>
</a>
<a style="color:inherit;" xlink:href="textedit:///mnt/waifuh1t/repo/Restia/static/lilypond/lilypond-for-drums/tie.ly:11:46:47">
<g transform="translate(33.9729, 5.2023)">
<path transform="scale(0.0040, -0.0040)" d="M194 171c100 0 194 -73 194 -171s-94 -171 -194 -171s-194 73 -194 171s94 171 194 171zM166 0l-96 84c-22 -24 -30 -73 -34 -84c0 -30 12 -60 34 -84zM194 24l95 83c-27 18 -60 28 -95 28s-69 -10 -96 -28zM194 -24l-96 -83c27 -18 61 -28 96 -28s68 10 95 28zM221 0
l97 -84c22 24 33 54 33 84s-11 60 -33 84z" fill="currentColor"/>
</g>
</a>
<g transform="translate(32.7350, 7.7023)">
<rect x="-0.0650" y="-4.5901" width="0.1300" height="3.9040" ry="0.0400" fill="currentColor"/>
</g>
<g transform="translate(35.4589, 7.7023)">
<rect x="-0.0650" y="-4.8049" width="0.1300" height="2.3049" ry="0.0400" fill="currentColor"/>
</g>
<g transform="translate(34.0379, 7.7023)">
<rect x="-0.0650" y="1.6861" width="0.1300" height="2.8139" ry="0.0400" fill="currentColor"/>
</g>
<g transform="translate(34.1029, 12.1623)">
<path transform="scale(0.0040, -0.0040)" d="M0 0h-16v250h16v-250zM0 0v250c97 59 224 148 224 259c0 57 -15 112 -40 163c-3 16 10 27 23 27c7 0 15 -3 20 -11c25 -56 40 -117 40 -179c0 -203 -267 -306 -267 -509z" fill="currentColor"/>
</g>
<a style="color:inherit;" xlink:href="textedit:///mnt/waifuh1t/repo/Restia/static/lilypond/lilypond-for-drums/tie.ly:12:8:9">
<g transform="translate(37.7085, 5.2023)">
<path transform="scale(0.0040, -0.0040)" d="M194 171c100 0 194 -73 194 -171s-94 -171 -194 -171s-194 73 -194 171s94 171 194 171zM166 0l-96 84c-22 -24 -30 -73 -34 -84c0 -30 12 -60 34 -84zM194 24l95 83c-27 18 -60 28 -95 28s-69 -10 -96 -28zM194 -24l-96 -83c27 -18 61 -28 96 -28s68 10 95 28zM221 0
l97 -84c22 24 33 54 33 84s-11 60 -33 84z" fill="currentColor"/>
</g>
</a>
<a style="color:inherit;" xlink:href="textedit:///mnt/waifuh1t/repo/Restia/static/lilypond/lilypond-for-drums/tie.ly:15:8:9">
<g transform="translate(37.7085, 9.2023)">
<path transform="scale(0.0040, -0.0040)" d="M218 136c55 0 108 -28 108 -89c0 -71 -55 -121 -102 -149c-35 -21 -75 -34 -116 -34c-55 0 -108 28 -108 89c0 71 55 121 102 149c35 21 75 34 116 34z" fill="currentColor"/>
</g>
</a>
<a style="color:inherit;" xlink:href="textedit:///mnt/waifuh1t/repo/Restia/static/lilypond/lilypond-for-drums/tie.ly:11:32:33">
<g transform="translate(28.9916, 6.2023)">
<path transform="scale(0.0040, -0.0040)" d="M163 36l119 97c3 2 6 3 9 3s7 -1 10 -3l20 -16c3 -3 5 -8 5 -12s-2 -9 -5 -12l-115 -93l115 -93c3 -3 5 -8 5 -12s-2 -9 -5 -12l-20 -16c-3 -2 -7 -3 -10 -3s-6 1 -9 3l-119 97l-119 -97c-3 -2 -6 -3 -9 -3s-7 1 -10 3l-20 16c-3 3 -5 8 -5 12s2 9 5 12l115 93l-115 93
c-3 3 -5 8 -5 12s2 9 5 12l20 16c3 2 7 3 10 3s6 -1 9 -3z" fill="currentColor"/>
</g>
</a>
<a style="color:inherit;" xlink:href="textedit:///mnt/waifuh1t/repo/Restia/static/lilypond/lilypond-for-drums/tie.ly:14:19:20">
<g transform="translate(28.9916, 9.2023)">
<path transform="scale(0.0040, -0.0040)" d="M218 136c55 0 108 -28 108 -89c0 -71 -55 -121 -102 -149c-35 -21 -75 -34 -116 -34c-55 0 -108 28 -108 89c0 71 55 121 102 149c35 21 75 34 116 34z" fill="currentColor"/>
</g>
</a>
<g transform="translate(30.2308, 7.7023)">
<rect x="-0.0650" y="-4.3926" width="0.1300" height="2.4722" ry="0.0400" fill="currentColor"/>
</g>
<g transform="translate(29.0566, 7.7023)">
<rect x="-0.0650" y="1.6861" width="0.1300" height="2.1239" ry="0.0400" fill="currentColor"/>
</g>
<g transform="translate(26.5524, 7.7023)">
<rect x="-0.0650" y="1.6861" width="0.1300" height="2.1239" ry="0.0400" fill="currentColor"/>
</g>
</svg>
