<?xml version="1.0" encoding="UTF-8" standalone="no"?>
<!-- Created with Inkscape (http://www.inkscape.org/) -->

<svg
   width="500.00003"
   height="500.00003"
   viewBox="0 0 132.29167 132.29167"
   version="1.1"
   id="svg16581"
   inkscape:version="1.1.2 (0a00cf5339, 2022-02-04)"
   sodipodi:docname="bg-pattern-flowers.svg"
   xmlns:inkscape="http://www.inkscape.org/namespaces/inkscape"
   xmlns:sodipodi="http://sodipodi.sourceforge.net/DTD/sodipodi-0.dtd"
   xmlns="http://www.w3.org/2000/svg"
   xmlns:svg="http://www.w3.org/2000/svg">
  <sodipodi:namedview
     id="namedview16583"
     pagecolor="#ffffff"
     bordercolor="#666666"
     borderopacity="1.0"
     inkscape:pageshadow="2"
     inkscape:pageopacity="0.0"
     inkscape:pagecheckerboard="0"
     inkscape:document-units="mm"
     showgrid="false"
     inkscape:zoom="1.1866162"
     inkscape:cx="191.72164"
     inkscape:cy="129.7808"
     inkscape:window-width="2560"
     inkscape:window-height="1391"
     inkscape:window-x="0"
     inkscape:window-y="22"
     inkscape:window-maximized="1"
     inkscape:current-layer="layer1"
     units="px" />
  <defs
     id="defs16578">
    <filter
       inkscape:label="Evanescent"
       inkscape:menu="Blurs"
       inkscape:menu-tooltip="Blur the contents of objects, preserving the outline and adding progressive transparency at edges"
       style="color-interpolation-filters:sRGB"
       id="filter177307-4"
       x="-1.0231304"
       y="-0.97354218"
       width="3.0462609"
       height="2.9470844">
      <feGaussianBlur
         result="result6"
         stdDeviation="3"
         in="SourceGraphic"
         id="feGaussianBlur177301-6" />
      <feColorMatrix
         values="1 0 0 0 0 0 1 0 0 0 0 0 1 0 0 0 0 0 1 0 "
         result="result7"
         in="SourceGraphic"
         id="feColorMatrix177303-1" />
      <feComposite
         operator="in"
         in="result6"
         in2="result7"
         id="feComposite177305-1" />
    </filter>
    <filter
       inkscape:label="Evanescent"
       inkscape:menu="Blurs"
       inkscape:menu-tooltip="Blur the contents of objects, preserving the outline and adding progressive transparency at edges"
       style="color-interpolation-filters:sRGB"
       id="filter177307-4-2"
       x="-1.0231304"
       y="-0.97354218"
       width="3.0462609"
       height="2.9470844">
      <feGaussianBlur
         result="result6"
         stdDeviation="3"
         in="SourceGraphic"
         id="feGaussianBlur177301-6-6" />
      <feColorMatrix
         values="1 0 0 0 0 0 1 0 0 0 0 0 1 0 0 0 0 0 1 0 "
         result="result7"
         in="SourceGraphic"
         id="feColorMatrix177303-1-1" />
      <feComposite
         operator="in"
         in="result6"
         in2="result7"
         id="feComposite177305-1-1" />
    </filter>
    <filter
       inkscape:label="Evanescent"
       inkscape:menu="Blurs"
       inkscape:menu-tooltip="Blur the contents of objects, preserving the outline and adding progressive transparency at edges"
       style="color-interpolation-filters:sRGB"
       id="filter177291-1"
       x="-0.96396627"
       y="-1.0231552"
       width="2.9279325"
       height="3.0463104">
      <feGaussianBlur
         result="result6"
         stdDeviation="3"
         in="SourceGraphic"
         id="feGaussianBlur177285-0" />
      <feColorMatrix
         values="1 0 0 0 0 0 1 0 0 0 0 0 1 0 0 0 0 0 1 0 "
         result="result7"
         in="SourceGraphic"
         id="feColorMatrix177287-1" />
      <feComposite
         operator="in"
         in="result6"
         in2="result7"
         id="feComposite177289-0" />
    </filter>
    <filter
       inkscape:label="Evanescent"
       inkscape:menu="Blurs"
       inkscape:menu-tooltip="Blur the contents of objects, preserving the outline and adding progressive transparency at edges"
       style="color-interpolation-filters:sRGB"
       id="filter177291-1-8"
       x="-0.96396627"
       y="-1.0231552"
       width="2.9279325"
       height="3.0463104">
      <feGaussianBlur
         result="result6"
         stdDeviation="3"
         in="SourceGraphic"
         id="feGaussianBlur177285-0-2" />
      <feColorMatrix
         values="1 0 0 0 0 0 1 0 0 0 0 0 1 0 0 0 0 0 1 0 "
         result="result7"
         in="SourceGraphic"
         id="feColorMatrix177287-1-7" />
      <feComposite
         operator="in"
         in="result6"
         in2="result7"
         id="feComposite177289-0-0" />
    </filter>
    <filter
       inkscape:label="Evanescent"
       inkscape:menu="Blurs"
       inkscape:menu-tooltip="Blur the contents of objects, preserving the outline and adding progressive transparency at edges"
       style="color-interpolation-filters:sRGB"
       id="filter177299-2-5"
       x="-1.0024584"
       y="-0.98127673"
       width="3.0049168"
       height="2.9625535">
      <feGaussianBlur
         result="result6"
         stdDeviation="3"
         in="SourceGraphic"
         id="feGaussianBlur177293-8-2" />
      <feColorMatrix
         values="1 0 0 0 0 0 1 0 0 0 0 0 1 0 0 0 0 0 1 0 "
         result="result7"
         in="SourceGraphic"
         id="feColorMatrix177295-8-8" />
      <feComposite
         operator="in"
         in="result6"
         in2="result7"
         id="feComposite177297-7-3" />
    </filter>
    <filter
       inkscape:label="Evanescent"
       inkscape:menu="Blurs"
       inkscape:menu-tooltip="Blur the contents of objects, preserving the outline and adding progressive transparency at edges"
       style="color-interpolation-filters:sRGB"
       id="filter177299-2"
       x="-1.0024584"
       y="-0.98127673"
       width="3.0049168"
       height="2.9625535">
      <feGaussianBlur
         result="result6"
         stdDeviation="3"
         in="SourceGraphic"
         id="feGaussianBlur177293-8" />
      <feColorMatrix
         values="1 0 0 0 0 0 1 0 0 0 0 0 1 0 0 0 0 0 1 0 "
         result="result7"
         in="SourceGraphic"
         id="feColorMatrix177295-8" />
      <feComposite
         operator="in"
         in="result6"
         in2="result7"
         id="feComposite177297-7" />
    </filter>
    <filter
       inkscape:label="Evanescent"
       inkscape:menu="Blurs"
       inkscape:menu-tooltip="Blur the contents of objects, preserving the outline and adding progressive transparency at edges"
       style="color-interpolation-filters:sRGB"
       id="filter177283-7"
       x="-1.0068905"
       y="-0.98927259"
       width="3.013781"
       height="2.9785452">
      <feGaussianBlur
         result="result6"
         stdDeviation="3"
         in="SourceGraphic"
         id="feGaussianBlur177277-9" />
      <feColorMatrix
         values="1 0 0 0 0 0 1 0 0 0 0 0 1 0 0 0 0 0 1 0 "
         result="result7"
         in="SourceGraphic"
         id="feColorMatrix177279-0" />
      <feComposite
         operator="in"
         in="result6"
         in2="result7"
         id="feComposite177281-7" />
    </filter>
    <filter
       inkscape:label="Evanescent"
       inkscape:menu="Blurs"
       inkscape:menu-tooltip="Blur the contents of objects, preserving the outline and adding progressive transparency at edges"
       style="color-interpolation-filters:sRGB"
       id="filter177275-6"
       x="-1.018679"
       y="-0.97667289"
       width="3.037358"
       height="2.9533458">
      <feGaussianBlur
         result="result6"
         stdDeviation="3"
         in="SourceGraphic"
         id="feGaussianBlur177269-9" />
      <feColorMatrix
         values="1 0 0 0 0 0 1 0 0 0 0 0 1 0 0 0 0 0 1 0 "
         result="result7"
         in="SourceGraphic"
         id="feColorMatrix177271-3" />
      <feComposite
         operator="in"
         in="result6"
         in2="result7"
         id="feComposite177273-3" />
    </filter>
    <filter
       inkscape:label="Evanescent"
       inkscape:menu="Blurs"
       inkscape:menu-tooltip="Blur the contents of objects, preserving the outline and adding progressive transparency at edges"
       style="color-interpolation-filters:sRGB"
       id="filter177267-6"
       x="-1.003209"
       y="-0.99040855"
       width="3.006418"
       height="2.9808171">
      <feGaussianBlur
         result="result6"
         stdDeviation="3"
         in="SourceGraphic"
         id="feGaussianBlur177261-4" />
      <feColorMatrix
         values="1 0 0 0 0 0 1 0 0 0 0 0 1 0 0 0 0 0 1 0 "
         result="result7"
         in="SourceGraphic"
         id="feColorMatrix177263-9" />
      <feComposite
         operator="in"
         in="result6"
         in2="result7"
         id="feComposite177265-8" />
    </filter>
    <filter
       inkscape:label="Evanescent"
       inkscape:menu="Blurs"
       inkscape:menu-tooltip="Blur the contents of objects, preserving the outline and adding progressive transparency at edges"
       style="color-interpolation-filters:sRGB"
       id="filter177259-4"
       x="-1.0087137"
       y="-0.9832605"
       width="3.0174275"
       height="2.966521">
      <feGaussianBlur
         result="result6"
         stdDeviation="3"
         in="SourceGraphic"
         id="feGaussianBlur177253-6" />
      <feColorMatrix
         values="1 0 0 0 0 0 1 0 0 0 0 0 1 0 0 0 0 0 1 0 "
         result="result7"
         in="SourceGraphic"
         id="feColorMatrix177255-9" />
      <feComposite
         operator="in"
         in="result6"
         in2="result7"
         id="feComposite177257-9" />
    </filter>
    <filter
       inkscape:label="Evanescent"
       inkscape:menu="Blurs"
       inkscape:menu-tooltip="Blur the contents of objects, preserving the outline and adding progressive transparency at edges"
       style="color-interpolation-filters:sRGB"
       id="filter177251-7"
       x="-0.99282098"
       y="-1.0107393"
       width="2.985642"
       height="3.0214786">
      <feGaussianBlur
         result="result6"
         stdDeviation="3"
         in="SourceGraphic"
         id="feGaussianBlur177245-8" />
      <feColorMatrix
         values="1 0 0 0 0 0 1 0 0 0 0 0 1 0 0 0 0 0 1 0 "
         result="result7"
         in="SourceGraphic"
         id="feColorMatrix177247-0" />
      <feComposite
         operator="in"
         in="result6"
         in2="result7"
         id="feComposite177249-1" />
    </filter>
    <filter
       inkscape:label="Evanescent"
       inkscape:menu="Blurs"
       inkscape:menu-tooltip="Blur the contents of objects, preserving the outline and adding progressive transparency at edges"
       style="color-interpolation-filters:sRGB"
       id="filter177259-4-7"
       x="-1.0087137"
       y="-0.9832605"
       width="3.0174275"
       height="2.966521">
      <feGaussianBlur
         result="result6"
         stdDeviation="3"
         in="SourceGraphic"
         id="feGaussianBlur177253-6-3" />
      <feColorMatrix
         values="1 0 0 0 0 0 1 0 0 0 0 0 1 0 0 0 0 0 1 0 "
         result="result7"
         in="SourceGraphic"
         id="feColorMatrix177255-9-6" />
      <feComposite
         operator="in"
         in="result6"
         in2="result7"
         id="feComposite177257-9-1" />
    </filter>
    <filter
       inkscape:label="Evanescent"
       inkscape:menu="Blurs"
       inkscape:menu-tooltip="Blur the contents of objects, preserving the outline and adding progressive transparency at edges"
       style="color-interpolation-filters:sRGB"
       id="filter177259-4-7-5"
       x="-1.0087137"
       y="-0.9832605"
       width="3.0174275"
       height="2.966521">
      <feGaussianBlur
         result="result6"
         stdDeviation="3"
         in="SourceGraphic"
         id="feGaussianBlur177253-6-3-8" />
      <feColorMatrix
         values="1 0 0 0 0 0 1 0 0 0 0 0 1 0 0 0 0 0 1 0 "
         result="result7"
         in="SourceGraphic"
         id="feColorMatrix177255-9-6-7" />
      <feComposite
         operator="in"
         in="result6"
         in2="result7"
         id="feComposite177257-9-1-5" />
    </filter>
  </defs>
  <g
     inkscape:label="Layer 1"
     inkscape:groupmode="layer"
     id="layer1"
     transform="translate(-117.87202,-55.809258)">
    <rect
       style="opacity:0.801835;fill:#ababab;fill-opacity:0;stroke:none;stroke-width:0.774999;stroke-linecap:round;stroke-linejoin:round;stroke-opacity:1;stop-color:#000000"
       id="rect14182"
       width="132.29167"
       height="132.29167"
       x="117.87202"
       y="55.809258" />
    <path
       id="path389995-3-3-8-5"
       style="fill:#d9e591;fill-opacity:1;stroke:none;stroke-width:0.0209607px;stroke-linecap:butt;stroke-linejoin:miter;stroke-opacity:1;filter:url(#filter177291-1)"
       inkscape:transform-center-x="0.86313086"
       inkscape:transform-center-y="-0.32144135"
       d="m 200.62123,52.2629 c -0.59071,-0.1102 -0.45921,0.6336 -0.58445,0.9902 -0.12049,0.4986 -0.30145,0.9812 -0.52179,1.444 0.0345,-0.7679 -0.0747,-1.5815 -0.49527,-2.2397 -0.23839,-0.3835 -0.79201,-0.5061 -1.15547,-0.2254 -0.19391,0.3105 -0.47791,0.5521 -0.82574,0.7298 -0.31873,0.177 -0.83054,0.5945 -0.45317,0.9674 0.74295,0.2808 1.40419,0.7419 1.99797,1.263 -0.78376,-0.3044 -1.67475,-0.4654 -2.4967,-0.2275 -0.43511,0.1217 -0.70688,0.6195 -0.53884,1.0468 0.24401,0.2729 0.39689,0.613 0.47052,0.9966 0.0812,0.355 0.33945,0.9633 0.80277,0.705 0.49043,-0.6532 1.13949,-1.1706 1.82747,-1.6023 -0.54403,0.528 -1.0317,1.1818 -1.16628,1.943 -0.0898,0.4762 0.31916,0.9518 0.80376,0.9291 0.37055,-0.1913 0.80402,0.063 1.20022,0.091 0.40251,0.1663 1.00821,-0.1849 0.6729,-0.6385 -0.26474,-0.6614 -0.39214,-1.3703 -0.44362,-2.0786 0.43554,0.6903 1.03183,1.3317 1.80609,1.6316 0.41978,0.1667 0.93777,-0.063 1.06388,-0.5045 -0.0302,-0.3653 0.057,-0.7278 0.23148,-1.0775 0.15245,-0.3308 0.3157,-0.9713 -0.20946,-1.0476 -0.7968,0.2242 -1.63809,0.2389 -2.45731,0.1603 0.77478,-0.1724 1.55768,-0.5022 2.09376,-1.1055 0.30404,-0.3343 0.26992,-0.9003 -0.0993,-1.1732 -0.30792,-0.111 -0.60648,-0.2462 -0.83964,-0.5164 -0.2073,-0.1788 -0.41633,-0.3814 -0.6853,-0.4613 z"
       inkscape:spray-origin="#path243130-4-4" />
    <path
       id="path389995-3-3-8-5-5"
       style="fill:#d9e591;fill-opacity:1;stroke:none;stroke-width:0.0209607px;stroke-linecap:butt;stroke-linejoin:miter;stroke-opacity:1;filter:url(#filter177291-1-8)"
       inkscape:transform-center-x="0.86313086"
       inkscape:transform-center-y="-0.32144135"
       d="m 200.62123,184.5546 c -0.59071,-0.1102 -0.45921,0.6336 -0.58445,0.9902 -0.12049,0.4986 -0.30145,0.9812 -0.52179,1.444 0.0345,-0.7679 -0.0747,-1.5815 -0.49527,-2.2397 -0.23839,-0.3835 -0.79201,-0.5061 -1.15547,-0.2254 -0.19391,0.3105 -0.47791,0.5521 -0.82574,0.7298 -0.31873,0.177 -0.83054,0.5945 -0.45317,0.9674 0.74295,0.2808 1.40419,0.7419 1.99797,1.263 -0.78376,-0.3044 -1.67475,-0.4654 -2.4967,-0.2275 -0.43511,0.1217 -0.70688,0.6195 -0.53884,1.0468 0.24401,0.2729 0.39689,0.613 0.47052,0.9966 0.0812,0.355 0.33945,0.9633 0.80277,0.705 0.49043,-0.6532 1.13949,-1.1706 1.82747,-1.6023 -0.54403,0.528 -1.0317,1.1818 -1.16628,1.943 -0.0898,0.4762 0.31916,0.9518 0.80376,0.9291 0.37055,-0.1913 0.80402,0.063 1.20022,0.091 0.40251,0.1663 1.00821,-0.1849 0.6729,-0.6385 -0.26474,-0.6614 -0.39214,-1.3703 -0.44362,-2.0786 0.43554,0.6903 1.03183,1.3317 1.80609,1.6316 0.41978,0.1667 0.93777,-0.063 1.06388,-0.5045 -0.0302,-0.3653 0.057,-0.7278 0.23148,-1.0775 0.15245,-0.3308 0.3157,-0.9713 -0.20946,-1.0476 -0.7968,0.2242 -1.63809,0.2389 -2.45731,0.1603 0.77478,-0.1724 1.55768,-0.5022 2.09376,-1.1055 0.30404,-0.3343 0.26992,-0.9003 -0.0993,-1.1732 -0.30792,-0.111 -0.60648,-0.2462 -0.83964,-0.5164 -0.2073,-0.1788 -0.41633,-0.3814 -0.6853,-0.4613 z"
       inkscape:spray-origin="#path243130-4-4" />
    <path
       id="path389997-1-2-03-9"
       style="fill:#fae098;fill-opacity:1;stroke:none;stroke-width:0.0209607px;stroke-linecap:butt;stroke-linejoin:miter;stroke-opacity:1;filter:url(#filter177283-7)"
       inkscape:transform-center-x="-0.079393594"
       inkscape:transform-center-y="0.68964433"
       d="m 174.54868,152.83098 c 0.17836,0.5737 0.77478,0.1101 1.14856,0.054 0.49713,-0.1266 1.00838,-0.1918 1.52054,-0.2129 -0.69445,0.329 -1.36372,0.8042 -1.7493,1.4837 -0.22803,0.3899 -0.0777,0.9366 0.33988,1.1271 0.36494,0.026 0.71143,0.1645 1.03093,0.3896 0.30533,0.199 0.91349,0.4568 1.06715,-0.051 -0.0989,-0.7881 3.1e-4,-1.5882 0.18398,-2.3566 0.0967,0.8353 0.37055,1.6983 0.96468,2.3141 0.31094,0.3277 0.87786,0.336 1.17732,-0.013 0.12741,-0.343 0.35673,-0.6373 0.66155,-0.8815 0.27639,-0.2375 0.6935,-0.7498 0.24875,-1.039 -0.80665,-0.1287 -1.56718,-0.4612 -2.27022,-0.8679 0.72101,0.2345 1.5268,0.3606 2.26271,0.124 0.4631,-0.143 0.69264,-0.7269 0.44634,-1.1446 -0.34247,-0.2384 -0.31959,-0.7404 -0.48033,-1.1036 -0.0389,-0.4335 -0.63407,-0.8054 -0.87877,-0.2972 -0.46133,0.5429 -1.02881,0.9865 -1.63097,1.3629 0.40682,-0.7075 0.69583,-1.5343 0.59944,-2.359 -0.0484,-0.449 -0.49342,-0.7999 -0.94282,-0.7052 -0.30965,0.1952 -0.67023,0.2894 -1.06085,0.2984 -0.36364,0.022 -1.00635,0.1745 -0.82855,0.6746 0.57016,0.6 0.97599,1.3371 1.28905,2.0982 -0.51401,-0.6048 -1.17137,-1.143 -1.95522,-1.3354 -0.43753,-0.1127 -0.92213,0.1819 -0.9911,0.6356 0.0458,0.3244 0.0656,0.6512 -0.0643,0.9837 -0.0613,0.2669 -0.14295,0.5461 -0.0877,0.8213 z"
       inkscape:spray-origin="#path243130-4-4" />
    <path
       id="path389999-5-5-9-4"
       style="fill:#bb99ce;fill-opacity:1;stroke:none;stroke-width:0.0209607px;stroke-linecap:butt;stroke-linejoin:miter;stroke-opacity:1;filter:url(#filter177275-6)"
       inkscape:transform-center-x="-0.15467443"
       inkscape:transform-center-y="-0.87181009"
       d="m 201.12894,105.27883 c -0.009,-0.6008 -0.71112,-0.3265 -1.0853,-0.3801 -0.5125,-0.022 -1.02112,-0.104 -1.51799,-0.2297 0.75949,-0.1175 1.53652,-0.3818 2.09994,-0.9228 0.32995,-0.3088 0.34161,-0.8756 -0.004,-1.1773 -0.34247,-0.1296 -0.63485,-0.3611 -0.87692,-0.6675 -0.2358,-0.2777 -0.74515,-0.6985 -1.03731,-0.2557 -0.13043,0.7835 -0.45355,1.522 -0.8488,2.2061 0.14554,-0.8281 0.12956,-1.7334 -0.26431,-2.4931 -0.20428,-0.403 -0.74559,-0.5724 -1.1319,-0.3244 -0.21982,0.2924 -0.52373,0.5091 -0.88555,0.656 -0.33254,0.149 -0.87869,0.5207 -0.53483,0.9249 0.73638,0.3537 1.37042,0.8892 1.92814,1.4797 -0.6241,-0.4306 -1.3604,-0.7813 -2.13324,-0.7647 -0.4846,0 -0.87126,0.499 -0.75439,0.9696 0.25998,0.3261 0.095,0.8009 0.14554,1.1948 -0.0847,0.4271 0.37789,0.9528 0.75755,0.5354 0.59706,-0.3887 1.2675,-0.6518 1.95206,-0.8407 -0.59201,0.5618 -1.10473,1.2718 -1.24772,2.0898 -0.0816,0.4441 0.24444,0.9074 0.70235,0.9449 0.35241,-0.099 0.72499,-0.086 1.10192,0.017 0.35414,0.085 1.0143,0.1201 0.98657,-0.4099 -0.37529,-0.7377 -0.55383,-1.56 -0.63662,-2.3787 0.32002,0.7262 0.79646,1.4297 1.49281,1.8377 0.38739,0.2328 0.9357,0.089 1.13129,-0.3265 0.0488,-0.3239 0.12265,-0.6428 0.34248,-0.9243 0.13474,-0.2384 0.29281,-0.4827 0.31872,-0.7621 z"
       inkscape:spray-origin="#path243130-4-4" />
    <path
       id="path389999-5-5-3-2-3"
       style="fill:#82cccb;fill-opacity:1;stroke:none;stroke-width:0.0209607px;stroke-linecap:butt;stroke-linejoin:miter;stroke-opacity:1;filter:url(#filter177267-6)"
       inkscape:transform-center-x="-0.66901834"
       inkscape:transform-center-y="-0.67988598"
       d="m 232.88405,141.76852 c 0.30064,-0.5202 -0.44273,-0.6452 -0.73635,-0.8832 -0.42855,-0.2819 -0.82298,-0.6134 -1.18489,-0.9763 0.71213,0.289 1.51465,0.461 2.27587,0.2859 0.44167,-0.096 0.7426,-0.5762 0.60084,-1.0125 -0.2274,-0.287 -0.35951,-0.6357 -0.41,-1.0229 -0.0598,-0.3594 -0.28099,-0.982 -0.75901,-0.7519 -0.51408,0.6055 -1.17044,1.0734 -1.86078,1.4577 0.54994,-0.636 1.00089,-1.4212 1.05278,-2.2753 0.0315,-0.4508 -0.34609,-0.874 -0.80492,-0.8594 -0.33874,0.1381 -0.71079,0.1681 -1.09671,0.1085 -0.36187,-0.043 -1.02138,0 -0.93373,0.5192 0.45044,0.6816 0.71974,1.4666 0.89531,2.2596 -0.31461,-0.6899 -0.76652,-1.3688 -1.43831,-1.7512 -0.4159,-0.2487 -1.00387,-0.019 -1.14511,0.4449 0.0557,0.4134 -0.32954,0.7362 -0.48834,1.1002 -0.2919,0.323 -0.16472,1.0116 0.37535,0.8483 0.71192,-0.027 1.42236,0.091 2.10682,0.2804 -0.79643,0.1783 -1.60088,0.5245 -2.14345,1.1531 -0.29797,0.3393 -0.25595,0.9042 0.1178,1.1714 0.35326,0.096 0.66635,0.2983 0.93697,0.5802 0.26031,0.2547 0.80886,0.6237 1.05709,0.1546 0.0566,-0.8258 0.32538,-1.6231 0.67454,-2.3682 -0.0981,0.7875 -0.0503,1.6358 0.33795,2.3433 0.21298,0.3987 0.75737,0.5567 1.13849,0.3005 0.20813,-0.253 0.43519,-0.4888 0.76833,-0.6175 0.238,-0.1355 0.49906,-0.264 0.6647,-0.4905 z"
       inkscape:spray-origin="#path243130-4-4" />
    <path
       id="path390001-7-5-3-8"
       style="fill:#f9b4eb;fill-opacity:1;stroke:none;stroke-width:0.0209607px;stroke-linecap:butt;stroke-linejoin:miter;stroke-opacity:1;filter:url(#filter177259-4-7)"
       inkscape:transform-center-x="-0.092970397"
       inkscape:transform-center-y="-0.84063994"
       d="m 141.50849,78.019098 c -0.054,-0.5985 -0.73427,-0.2708 -1.11147,-0.2949 -0.51255,0.017 -1.02609,-0.026 -1.5312,-0.1119 0.74813,-0.1758 1.50239,-0.4993 2.02228,-1.0824 0.3049,-0.3334 0.27295,-0.8994 -0.0954,-1.1735 -0.35155,-0.1028 -0.66085,-0.3109 -0.92594,-0.5976 -0.25653,-0.2587 -0.79689,-0.6388 -1.05398,-0.1745 -0.0691,0.7912 -0.33427,1.5525 -0.67562,2.2651 0.0812,-0.8369 -0.004,-1.7383 -0.45619,-2.4652 -0.23494,-0.3861 -0.78761,-0.513 -1.15358,-0.2358 -0.1965,0.3088 -0.48279,0.5479 -0.83217,0.7225 -0.32002,0.174 -0.8358,0.5871 -0.46172,0.9635 0.76152,0.2954 1.43507,0.7805 2.0368,1.3261 -0.65554,-0.3809 -1.41676,-0.6737 -2.18597,-0.5974 -0.48279,0.043 -0.83005,0.5648 -0.67717,1.025 0.2846,0.3049 0.15677,0.7911 0.23753,1.18 -0.0514,0.4324 0.45044,0.9207 0.79667,0.4752 0.5652,-0.4337 1.21331,-0.7479 1.8812,-0.9892 -0.5468,0.606 -1.00307,1.3535 -1.0824,2.18 -0.0471,0.4492 0.31397,0.8859 0.77335,0.8878 0.34377,-0.1257 0.71613,-0.1421 1.09989,-0.069 0.35975,0.057 1.02056,0.043 0.95194,-0.4851 -0.43101,-0.7066 -0.67282,-1.5125 -0.8187,-2.3224 0.37529,0.6993 0.90464,1.3638 1.63049,1.7168 0.4038,0.2021 0.93975,0.017 1.10266,-0.4129 0.0216,-0.3265 0.073,-0.6504 0.26992,-0.948 0.11617,-0.2479 0.25437,-0.504 0.25869,-0.7845 z"
       inkscape:spray-origin="#path243130-4-4" />
  </g>
</svg>
